<svg xmlns="http://www.w3.org/2000/svg" viewBox="0 0 32 32"><defs><style>.cls-1{fill:#f1b4b4;}</style></defs><g id="Capa_2" data-name="Capa 2"><g id="Capa_1-2" data-name="Capa 1"><path class="cls-1" d="M16,0A16,16,0,1,0,32,16,16,16,0,0,0,16,0Zm9.59,16.18A5.63,5.63,0,0,1,21.09,18c-.13-.27,2.6-.8,4-3.65,1.5-3,.28-5-1.31-6.07a4.19,4.19,0,0,0-2.22-.72,2.12,2.12,0,0,0-.34,0A3.32,3.32,0,0,0,18.47,9a6.25,6.25,0,0,0-.79,1.7,1.38,1.38,0,0,1-1.39,1,1.42,1.42,0,0,1-1.43-1.16,4.35,4.35,0,0,0-4-3.34,4.19,4.19,0,0,0-3.47,1.9A3.82,3.82,0,0,0,7,12.79c1,2,2.65,3.31,4.44,4.72a20.16,20.16,0,0,1,3.9,3.85c2.52,3.38,2,8.3,1.64,8.3s.25-1.75-1.5-5.18c-1.19-2.32-3.74-4.36-6.19-6.06-2.59-1.9-5-4.09-4.92-7.24A6.68,6.68,0,0,1,9.8,4.77,6.56,6.56,0,0,1,11,4.66a6.12,6.12,0,0,1,5.27,3.17,5.24,5.24,0,0,1,4.31-3H21c2.91,0,6.4,2.27,6.63,5.59A7.37,7.37,0,0,1,25.59,16.18Z"/></g></g></svg>