<svg xmlns="http://www.w3.org/2000/svg" viewBox="0 0 462.98 292.39"><defs><style>.cls-1{fill:#272b82;}.cls-2{fill:#f6f8fb;}.cls-3{fill:#fff;}</style></defs><g id="Capa_2" data-name="Capa 2"><g id="Capa_1-2" data-name="Capa 1"><g id="Capa_1-3" data-name="Capa_1"><g id="_2277085699920" data-name=" 2277085699920"><path class="cls-1" d="M243.49.48a131.06,131.06,0,0,1,87,23.86,133.7,133.7,0,0,1,39,43.75A108.8,108.8,0,0,1,394,73.64a105.49,105.49,0,0,1,52.81,42.42,104.66,104.66,0,0,1,.63,110.86,104.53,104.53,0,0,1-151.1,29,131.62,131.62,0,0,1-76.44,2.23A131.42,131.42,0,0,1,3.66,191.94c-.88-3.59-1.58-7.23-2.26-10.86a134.75,134.75,0,0,1,4.89-60.3A131.51,131.51,0,0,1,165.83,34.31,131.42,131.42,0,0,1,243.49.48Z"/><path class="cls-2" d="M41.49,114.93A9.48,9.48,0,0,1,50,110.45q12,.08,24.09.19c6.25.08,12.73,2,17.3,6.42,4.8,4.55,6.79,11.47,6.23,17.95-.52,6.88-5.68,12.35-11.51,15.47,5.66.89,11.15,3.72,14.51,8.47a30.78,30.78,0,0,1,13.17-21,23.83,23.83,0,0,1,20.66-2.41,16.46,16.46,0,0,1,7.94,6.68c1.56-3.19,4.79-5.91,8.54-5.47a8.07,8.07,0,0,1,7.32,8.65c-.83,14.1-1.71,28.2-2.55,42.29a8.93,8.93,0,0,1-2.66,5.92,8,8,0,0,1-10.8-.07,12.38,12.38,0,0,1-2.7-4.3,16.59,16.59,0,0,1-13.34,6.16c-9.76.37-18.93-6.09-22.79-14.89a22.43,22.43,0,0,1-11,13.43A36.45,36.45,0,0,1,76.3,198c-8.6,0-17.19-.09-25.79-.12-3.32.2-6.87-.91-8.92-3.66-1.79-2.15-2-5.08-1.86-7.75q.29-32.91.45-65.84a11,11,0,0,1,1.31-5.73Zm17.73,12.38c-.09,5.93-.1,11.86-.15,17.79,3.55,0,7.1.11,10.65,0,3-.11,6.24-1.27,7.74-4,2.42-4.36,1.26-11.22-3.91-13C68.92,126.74,64,127.56,59.22,127.31Zm66.18,22.9a11.63,11.63,0,0,0-6.71,5.3A20.25,20.25,0,0,0,116.4,169c.63,3.7,2.51,7.42,5.83,9.37A11.75,11.75,0,0,0,136,177.12c3.31-3.05,4.67-7.65,4.88-12,.11-4.09-.85-8.44-3.62-11.58a11.76,11.76,0,0,0-11.87-3.3ZM58.9,161.92c0,6.42-.08,12.83-.12,19.24,4.54,0,9.07.09,13.61.08,3.09,0,6.34-.48,8.94-2.29,4.46-3.07,4.76-10.52.58-13.95-2.77-2.33-6.53-3-10-3-4.32,0-8.64-.13-13,0Zm105.43-45.41a7.65,7.65,0,0,1,9.18,6.11c.93,7.08,1.56,14.21,2.45,21.3,1.92-1.73,3.74-3.64,6.15-4.69a23.12,23.12,0,0,1,19.69.19,27.81,27.81,0,0,1,12.95,14,34.46,34.46,0,0,1,.3,27.13c-3,6.94-9,12.77-16.54,14.41-4.33.9-9.16,1-13.11-1.25a34.31,34.31,0,0,1-4.38-3.32,11.67,11.67,0,0,1-3,4.75,7.62,7.62,0,0,1-10.34-.71c-1.63-1.66-2.1-4-2.27-6.27q-3.49-31.53-7-63.06c-.51-3.82,2.06-7.9,6-8.56Zm23.54,35.79a10.94,10.94,0,0,0-7.77,5.84A18.45,18.45,0,0,0,179,170.31a15,15,0,0,0,5.52,8.88,11.22,11.22,0,0,0,14.37-1.66c2.52-2.74,3.42-6.59,3.4-10.23-.12-4.28-1.34-8.79-4.39-11.94a11,11,0,0,0-10.06-3.06Zm204.07-19.68a39.92,39.92,0,0,1,17.32,1.2c3.14,1,6.38,2.78,7.82,5.93a8.4,8.4,0,0,1-1.65,9.14,6.62,6.62,0,0,1-5.16,1.86c-3-.21-5.65-2-8.65-2.37-4.77-.77-10.14.25-13.58,3.85s-4.31,9.16-3.71,14.05c.56,4.61,2.77,9.39,7,11.68,3.88,2.15,8.56,1.55,12.68.52,2.55-.61,4.85-2,7.41-2.52,4.15-.4,7.71,3.76,7.49,7.76-.24,3.32-2.8,5.91-5.56,7.48-11.32,6.42-27,5.66-36.57-3.56-6.37-5.85-9.59-14.52-9.78-23.06-.24-8.06,2.22-16.4,7.64-22.5a29,29,0,0,1,17.3-9.46ZM264.6,141.8c5.28-6.52,14.08-9.5,22.29-8.91,4.76.36,9.79,1.26,13.62,4.32a8.37,8.37,0,0,1,2.73,9.69,7.12,7.12,0,0,1-8.18,3.89c-4.34-1-8.6-3.11-13.17-2.5-2.05.23-4.35,1.39-4.79,3.6a3.79,3.79,0,0,0,2.27,4.31c3.35,1.66,7.13,2.08,10.72,3,5.62,1.29,11.59,3,15.62,7.41a32.43,32.43,0,0,1,9.11-24.6,29.64,29.64,0,0,1,22.52-8.77A26.47,26.47,0,0,1,352.49,139a31.73,31.73,0,0,1,11.39,20.32c.22,1.95.19,4.27-1.34,5.73-1.91,1.73-4.62,2-7,2.43-10.27,1.79-20.56,3.5-30.83,5.29a10.26,10.26,0,0,0,7.15,8.23,21.86,21.86,0,0,0,13.8-1c4-1.58,7.2-4.64,10.9-6.79,3.45-1.91,8.11.25,9.22,3.95,1.35,3.72-.52,7.68-3,10.42-4.83,5.26-11.76,8.26-18.75,9.26-8.55.94-17.66-.41-24.9-5.27A28,28,0,0,1,309.58,181a20.1,20.1,0,0,1-7.91,12.2c-7,5.15-16.23,6-24.63,4.93-4.31-.68-9-1.75-12.13-4.94-3.87-3.76-2.36-11.67,3.07-13.08,5-1.05,9.44,2.15,14.25,2.77,3.12.39,6.74.56,9.35-1.48,2.21-2,1.18-5.88-1.58-6.74-7.75-2.85-16.48-3.21-23.61-7.69-4.26-2.6-6-7.72-6.21-12.47-7.29,16.92-14.75,33.76-22.1,50.65-1,2.19-1.89,4.63-3.86,6.16a8.74,8.74,0,0,1-7.13.88,7,7,0,0,1-4.86-7.59,26,26,0,0,1,2.35-6.89c1.86-4.14,3.79-8.25,5.61-12.41.44-.68,0-1.42-.21-2.08q-7.33-17.73-14.59-35.49c-1.09-2.95-2.81-6.24-1.37-9.38,2-4.83,9.28-5.54,12.63-1.79a9.89,9.89,0,0,1,1.85,3.05c3.47,8.8,6.6,17.74,10.14,26.52,2.67-6.12,5.15-12.33,7.77-18.47,1.72-3.81,2.91-8,5.75-11.2,2.06-2.34,5.64-2.51,8.34-1.28a7.25,7.25,0,0,1,4.1,6.65Zm56.91,20.8A35.9,35.9,0,0,1,348.24,158a14.38,14.38,0,0,0-13.13-11.29c-8.05-.29-14.86,8.07-13.6,15.86Z"/><path class="cls-3" d="M190.19,31.73a107.7,107.7,0,0,1,131.07-.21c4.19,3.29,8.55,6.57,11.77,10.85A19,19,0,0,1,329,39.66a124.3,124.3,0,0,0-55.66-22.33A131.41,131.41,0,0,0,200,27.73c-4.5,1.93-8.67,4.52-13,6.87a13.74,13.74,0,0,1,3.12-2.87ZM95,45.62a118,118,0,0,1,71.76,0c2.26,1,4.94,1.17,6.87,2.81a23.36,23.36,0,0,1-5.7-.65A154.21,154.21,0,0,0,78,61.09,136.3,136.3,0,0,0,31.7,97c-1.73,2.07-3,4.57-5.18,6.25,1.66-4,4.29-7.39,6.49-11A117.67,117.67,0,0,1,95,45.62ZM331.86,83.3c20.13-8.47,43.62-8.22,63.84-.11a85.33,85.33,0,0,1,43.78,39.58c1,2,2.44,4,2.62,6.29-1.84-2.25-3.28-4.81-5.11-7.09-22.42-29-60.75-44.74-97.07-39.9-2.71.33-5.34,1.1-8.06,1.23Z"/></g></g></g></g></svg>