<svg xmlns="http://www.w3.org/2000/svg" viewBox="0 0 411.45 94.48"><defs><style>.cls-1{fill:#292765;}</style></defs><g id="Capa_2" data-name="Capa 2"><g id="Capa_1-2" data-name="Capa 1"><path class="cls-1" d="M124.07,41.79c-.08.52-.15.67-.11.78,4.24,11.57,0,20.92-7.77,29.3C109.06,79.56,99.76,82.47,89.68,83c-3.45.16-7-1-10.47-2-3.25-.89-3.64-1.25-4.72,2C72.75,88.35,68.7,90,63.94,91.41a73.25,73.25,0,0,1-28,2.76c-11.84-1-22.18-5.71-29.56-15.32A30.62,30.62,0,0,1,.22,56.05,66,66,0,0,1,8.87,29C15.94,17.11,26.28,9.23,39.05,4.2,50.25-.21,61.92-.41,73.63.33A35.64,35.64,0,0,1,89.17,5c2.42,1.39,2.61,2,1.48,4.48-1.58,3.48-3.22,6.94-5.14,11.07a35,35,0,0,1-3.07-2.93C77.94,12,72.18,9.39,64.9,8.94c-14.38-.88-24,6.68-31.55,17.44C25.23,37.92,22.53,51.16,23.91,65A22.34,22.34,0,0,0,42.28,85.38c11.27,2.31,20.92-1.23,30.17-7,.19-.12.23-.46.34-.69-.05-.26,0-.62-.15-.75-7.07-6.28-5-19-.64-26.27C77.68,41.14,86.25,36,96.94,33.77a32.05,32.05,0,0,1,15.75.58c1.14.34,2.54.48,3.32,1.24,3.49,3.37,6.81,2.36,10.67.53a23.4,23.4,0,0,1,12.42-2.25c4.06.4,7.05,2.18,8.6,6.08a13.57,13.57,0,0,0,1,1.65c3-1.87,5.75-3.84,8.74-5.42,4.65-2.47,9.58-3.74,14.91-2.39,4.1,1,6.54,3.75,7.88,8,2.83-1.82,5.19-3.81,7.91-5,3.75-1.6,7.7-3.22,11.69-3.64,8.36-.89,13.32,6.77,10.21,15.11-2,5.34-4,10.66-5.94,16a26.88,26.88,0,0,0-1.37,5.38c-.53,3.76.5,4.82,4.32,4.67a11.11,11.11,0,0,0,2.14-.44c0-.49.18-.81.08-1-2.95-5.53-1.93-11,0-16.58,3.87-11.12,11.66-18.1,22.83-21.48,6.74-2,13.5-2.63,20.4-.57,5.44,1.62,9.56,4.68,11.67,10,.8,2,.88,4.28,1.38,6.91a11.81,11.81,0,0,0,1.81-1.74c5.82-8.91,13.68-14.6,24.44-16.16,3.87-.56,7.35.49,10.92,1.44.88.24,1.72.62,2.76,1a13.64,13.64,0,0,0,1.48-2.37c1.37-3.73,2.82-7.45,3.9-11.27,1.42-5,.17-6.92-4.72-8.09-1.3-.31-3.57.06-3.12-2,.26-1.14,2.1-2.12,3.42-2.78.87-.42,2.09-.12,3.15-.16,6-.21,11.95-.4,17.93-.66,3.23-.14,4,.88,3,4.08q-6.15,18.08-12.36,36.13c-2.11,6.15-4.22,12.29-6.28,18.46a12.1,12.1,0,0,0-.56,3.11c-.22,3.9,1.27,5.24,5.25,4.82,1.51-.17,3-.36,4.57-.55A3.37,3.37,0,0,1,319,78.7c-4.27,1.75-8.49,3.75-13.32,3.7-4-.05-7.39-1.27-9.82-4.37-1.56-2-2.78-1.88-4.62-.52a28.13,28.13,0,0,1-11.59,5c-9.65,1.84-18.12-4.38-18.06-14.36a20.78,20.78,0,0,0-.33-2.37C259,68.35,257,70.61,255,72.73c-5.21,5.34-11.84,8-18.94,9.56a29.07,29.07,0,0,1-18-1.48c-.24-.1-.57-.12-.73-.3-3.45-3.64-7-1.91-10.73-.45-4.72,1.84-9.53,3.29-14.7,1.11-4.45-1.88-6.91-5.37-5.68-10,1.6-6,3.76-11.83,5.64-17.75a43.33,43.33,0,0,0,1.88-6.88c.46-3.45-1.23-5-4.63-4.7-4.49.38-9.79,4.74-11.19,9-3,9.07-6,18.11-9,27.18-.79,2.4-2.59,3.3-4.86,3.39-3.05.12-6.12.15-9.17,0-2.64-.1-3.21-1-2.34-3.67,2.52-7.54,5.11-15.06,7.63-22.6a66.41,66.41,0,0,0,2.28-7.61c.93-4.55-1.47-6.88-5.82-5.47-5,1.63-9.15,4-10.77,10-2.34,8.54-5.59,16.84-8.5,25.22-1.28,3.68-1.94,4.12-5.76,4.2-2.53,0-5.06.07-7.58,0-3.52-.12-4.09-.85-3-4.11,2.55-7.53,5.21-15,7.79-22.54a67.73,67.73,0,0,0,2.32-7.59c.41-1.89,1-4.14-1-5.52S126.17,40.56,124.07,41.79ZM85.2,69.15c0,1.32-.07,2.65,0,4,.19,3.14,1.81,5,4.89,5.13a11.59,11.59,0,0,0,5.3-1.14c3.32-1.64,5.31-4.67,7-7.85,3.88-7.11,5-15,6.34-22.8a10.85,10.85,0,0,0-.7-5c-1-2.82-2.43-3.72-5.41-3.69-5,.05-8.12,3-10.44,6.9A52.18,52.18,0,0,0,85.2,69.15ZM248.12,46.57V45c-.07-6.66-4.41-9.21-10.4-6a15.27,15.27,0,0,0-7.05,7.86,95.41,95.41,0,0,0-4.36,12.32,59.4,59.4,0,0,0-1.92,12.14c-.23,4.76,2.74,7.45,7.1,7.08a10.62,10.62,0,0,0,7.61-4.61C245.15,65.69,247.07,56.27,248.12,46.57Zm31.23,21.16c0,6.32,4.91,9.2,10.95,5.83a11.46,11.46,0,0,0,5.31-6.69q3.47-10.35,6.91-20.7a5.52,5.52,0,0,0-5-7.59c-4.3-.32-7.32,1.84-9.86,5C282.08,50.46,280.07,58.59,279.35,67.73Z"/><path class="cls-1" d="M323.7,41.23A3.25,3.25,0,0,1,325.48,37c5.3-2.48,10.72-4.57,16.81-3.35,3,.6,5.48,1.94,6.92,4.79.24.48.51.94.72,1.33,6.25-4.85,12.77-6.6,20-5.57a8.71,8.71,0,0,1,7.41,5.84,16.3,16.3,0,0,0,.91,1.57c3-1.84,5.78-3.91,8.85-5.28,5.2-2.31,10.56-4.51,16.45-2.3,5.25,2,7.59,5.92,6,11.31-1.86,6.21-4.36,12.21-6.43,18.35A31.8,31.8,0,0,0,401.46,71c-.23,2.65.54,3.26,3.23,3.4,2.21.11,4.43,0,6.67,0,.49,2.78-1.08,3.93-2.8,4.59a76.27,76.27,0,0,1-9.86,3.13c-4,.93-11.24-1-13.1-5.45a9.94,9.94,0,0,1-.49-7.33c1.9-5.5,3.92-11,5.81-16.48a54.94,54.94,0,0,0,1.83-6.49c.52-2.51-.68-4.07-3.18-4.48-4.41-.73-11.76,3.41-13.26,7.7-2.89,8.25-5.71,16.52-8.4,24.83-2.27,7-2.31,7.22-9.73,7.07-3.05-.06-6.4,1.11-9.05-1.69-.34-.35-1.73.14-2.56.43-4,1.42-8,2.62-12.42,2.23-7.31-.64-11.27-6.09-9-13.07,2.24-6.78,4.91-13.42,7.33-20.15a15.76,15.76,0,0,0,1-4.22c.24-3.42-1.3-4.91-4.75-4.66A50.37,50.37,0,0,0,323.7,41.23ZM346,75.16c4,0,5.35-.86,6.76-4.74,1.54-4.23,3-8.47,4.45-12.74,1.21-3.65,2.36-7.32,3.37-11,.88-3.22,0-4.88-2.63-5.55-3-.75-7,1.19-7.69,3.58s-1.56,5.05-2.44,7.54c-2.05,5.73-4.32,11.4-6.18,17.19C340.33,73.48,341.77,75.12,346,75.16Z"/><path class="cls-1" d="M360.81,13c-.1,2.52-1.89,4.14-3.94,5.4-2.69,1.67-5.53,3.11-8.31,4.64-3.37,1.84-6.76,3.64-10.1,5.53-1.09.61-2.09,1.36-3.19.21-1.29-1.34-.33-2.34.57-3.39,3.79-4.42,7.51-8.89,11.3-13.3,2.86-3.34,7.23-4.58,10.7-3.1A4.2,4.2,0,0,1,360.81,13Z"/></g></g></svg>