<svg xmlns="http://www.w3.org/2000/svg" viewBox="0 0 411.47 99.62"><defs><style>.cls-1{fill:#4b2286;}</style></defs><g id="Capa_2" data-name="Capa 2"><g id="Capa_1-2" data-name="Capa 1"><path class="cls-1" d="M150.43,73.67c-4.34,4.06-8.22,8.61-12.43,12.83A101.75,101.75,0,0,1,128.67,95a10,10,0,0,1-6.07,2.35c-1.77,0-2.59-1-1.84-2.6a5,5,0,0,1,.78-1.16c8-9.49,13-20.67,17.83-31.9,2.11-4.92,7.59-12.94,14.27-11.13,1.1.3,1.12,2.93.75,4.24a96.6,96.6,0,0,1-3.48,9.21,4.55,4.55,0,0,0-.47,2.47c2.27-2.7,13.84-14.2,25.08-15.57,4.17-.51,5.23.8,4.48,5a49.08,49.08,0,0,1-2.75,8.94C175.39,70,173.31,75,171.39,80.09c-.31.83-1.06,3.22-.66,4.34.59,1.65,3.61,1.44,5.17.64l0,0c4.83-2.51,9.36-5.21,11.81-10.86,3.29-7.6,9.17-13.44,15.72-18.45a24.82,24.82,0,0,1,14.82-5.36c4.19-.08,6.42,1.44,7.26,4.61,1.21,4.55-2.73,12.06-7.2,13.56a2.55,2.55,0,0,1-2.12-.19c-.35-.32-.24-1.43,0-2,.57-1.35,1.63-2.51,2-3.9,1.06-3.7-1.28-5.76-4.89-4.44a22.61,22.61,0,0,0-6.4,3.88c-5.76,4.77-9.49,10.78-10.28,18.38-.6,5.75,2,9,7.76,9.42,7.21.56,13.56-1.88,19.58-5.58,1.76-1.08,1.88-2.65,2.19-4.38,2.25-12.5,9.44-21.26,20.72-26.81a21.16,21.16,0,0,1,12.39-2c3.93.53,6,2.69,5.68,6.67a17,17,0,0,1-1.85,6.66A26.21,26.21,0,0,1,253.77,74c-4.36,2.78-8.89,5.28-13.38,7.85-2.12,1.22-2.33,2-1,4s3.15,2.46,5.26,2.71A24.2,24.2,0,0,0,258,86.24c4.08-1.94,7.87-4.51,11.77-6.84,2.22-1.33,2.92-3.28,3-5.91.33-13.82,3.3-27,9.95-39.27,5.48-10.09,12.16-19.47,21.86-24.72,3.15-1.7,16-7.82,16,4.46,0,4.73-2.6,10.63-4.15,13.36a103.67,103.67,0,0,1-19,23.8c-2.85,2.69-5.85,5.22-8.65,8a6.43,6.43,0,0,0-2.11,3.41c-.59,6.07-1.28,12.15-.14,18.27,1,5.34,3.8,7.53,9,5.83,3.37-1.09,6.41-3.21,9.55-5,1.65-.92,1.73-2.6,1.85-4.17a171.91,171.91,0,0,1,2.42-20.7c3.18-15.87,12.44-33.48,22-42.83,3.91-3.48,8.76-6.64,16-6.91,5-.19,7.14,1.29,7.09,6.24A28.16,28.16,0,0,1,350.25,27a110.78,110.78,0,0,1-20.59,25.55c-1.6,1.51-9.69,9.42-9.83,13.82a132.36,132.36,0,0,0,.68,15.44c.58,4.36,2.47,5.45,6.89,5.09a12,12,0,0,0,4.23-1.14c5.56-2.62,10.11-6.08,13.34-11.73a48.61,48.61,0,0,1,22.51-20.69A23.58,23.58,0,0,1,384,51.82a15.84,15.84,0,0,1,8.39,5.77c2.66,3.46,2.57,4.66.43,8.43-3.32,5.86-6.51,11.79-9.62,17.76-1,1.88-2.67,4.35-.73,6,2.18,1.9,4.48.36,6.34-1C395.57,84,401,77.24,405.48,70.46c1.65-2.49,3.06-3.35,3.83-3.47,1.29-.19,2.34.3,2.13,1.59a13.84,13.84,0,0,1-2,4c-5.33,8.15-12.06,16.64-21,22.28a15.66,15.66,0,0,1-9,2.35c-4.69-.12-6.77-1.72-8.15-6.27-.21-.7-.4-1.39-.7-2.41-2.49,2-4.6,3.82-6.81,5.49-5.23,3.92-11.07,5.16-16.62,3.21-4.85-1.7-6.79-4.91-7.26-10l-4.27,3.47c-3.92,3.19-7.95,6.07-13.23,6.7-6.63.79-10.83-1.39-13.65-7.42-.46-1-.95-1.93-1.67-3.4-2,1.62-3.77,3.07-5.56,4.47-3.71,2.91-7.44,5.68-12.38,6.36-7.23,1-12.28-1.88-14.63-8.76-.55-1.63-1-3.3-1.56-5.37-1,.72-1.84,1.25-2.6,1.88-7.33,6.13-15.29,11-25,12.28a36.11,36.11,0,0,1-6.57.28c-4.83-.26-8.76-2.11-11.27-6.54-1.55-2.75-1.71-2.66-4.49-.94-8,5-16.53,8.36-26.21,7.69a30.15,30.15,0,0,1-4.63-.73,9.49,9.49,0,0,1-7.64-7.44c-.26-1-.62-2.08-1-3.45-3.28,2.4-6.21,4.93-9.51,6.84a35.35,35.35,0,0,1-9.85,4.15c-6,1.31-9.3-1.93-7.87-7.89,1.35-5.61,3.5-11,5.4-16.5.83-2.4,3.33-8.14,4.09-10.58a.65.65,0,0,0-1-.71C161.69,63.91,153.88,70.46,150.43,73.67ZM353.48,86.34c-.16,4.67,1.54,5.92,5.21,4.53a9.28,9.28,0,0,0,2.47-1.31c8.37-6.66,14.76-14.83,18.36-25,.85-2.39,2-5.55-.72-7.29-2.35-1.5-4.76.38-6.76,1.91a54.44,54.44,0,0,0-17.84,24.2A18.6,18.6,0,0,0,353.48,86.34ZM321.75,53.43a84.13,84.13,0,0,0,13.39-14.29,89.47,89.47,0,0,0,7.56-12.87c1-2,3.44-8.61.47-9.06-2.56-.39-7.38,4.53-9.35,7.06C327.38,32.56,323.77,41.65,321.75,53.43Zm-32.93-.55c6.33-6.08,11.9-12,16.38-18.81,2.69-4.09,7.92-15.63,4.66-16.37-4.29-1-9.9,6.08-12.25,10.07C293.36,35,288.81,47.43,288.82,52.88Zm-49.9,25.53c2.69-1.32,8.36-3.88,11.92-7.21A16.54,16.54,0,0,0,255,64.53c.33-1,.43-3.48-.54-4.43-1.24-1.21-6.12-1.11-10,2.45C240.18,66.51,238.46,71.82,238.92,78.41Z"/><path class="cls-1" d="M47.18,9.16A36.06,36.06,0,0,0,35.62,9c-6.94.75-13.43,3.12-19.9,5.55-1.15.44-2.33,2.07-3.68.24-1.21-1.65-1.28-4.87.1-6.1a18.28,18.28,0,0,1,3.57-2.26A53.54,53.54,0,0,1,35,.66C47.49-.76,59.69-.18,71.37,5.43c16,7.7,21,22.14,19.57,35.83A63.52,63.52,0,0,1,69.78,83.11c-10.09,9.1-22.12,14-35.54,15.93-10,1.41-19.72.06-29.41-2.15a10.47,10.47,0,0,1-1.35-.4C1.8,95.87-.53,95.87.11,93s2.6-4.61,5.19-4.38,5,.72,7.46,1C37,92.8,56.05,84.11,70.59,64.79a45.33,45.33,0,0,0,9-22.42c1.4-11.92-6.07-24.78-17.12-29.3-3-1.24-3.59-1.12-5.58,1.43-13,16.64-21.72,35.13-24.91,56.09A6.4,6.4,0,0,1,31.71,72c-.53,1.41-1.18,4-1.69,4a9.84,9.84,0,0,1-5-1.81c-2.57-1.87-3.42-4.48-3.12-7.83C23.1,52.75,28.1,40.47,34.61,28.75,37.8,23,41.68,17.66,45.25,12.13,45.82,11.26,46.39,10.39,47.18,9.16Z"/><path class="cls-1" d="M96.55,97.87c-10.34-.55-15.81-7.1-13.94-17,1.51-8,6-14.46,11.83-19.84a62,62,0,0,1,12.32-8.46,21.29,21.29,0,0,1,8.53-2.34c9.76-.72,15.35,5.42,13.35,14.94-2.83,13.46-10.55,23.6-22.68,30.11A19.1,19.1,0,0,1,96.55,97.87Zm-3.42-9.41c0,3.74,1.12,4.71,4,4.11a8,8,0,0,0,3-1.14A52.81,52.81,0,0,0,119.62,65c.69-2,1.57-4.56-.65-6.07s-4.47-.17-6.44,1.26c-8.51,6.15-14.34,14.36-18.27,24A29.77,29.77,0,0,0,93.13,88.46Z"/><path class="cls-1" d="M402,38.23c-2.27-5.06-7.32-6.24-11.87-8.38,5.05-.55,11.76,2.85,13.8,6.85,1.81,3.55-.16,6.82-4.15,6.7a13.11,13.11,0,0,1-9.21-4.16c-.74-.77-.87-2.23-1-3.4s.43-1.65,1.69-1.56C395.19,34.55,399.07,34.92,402,38.23Z"/><path class="cls-1" d="M384.29,30.28c1.17,1.63,3.47,2.25.69,4.13-.76.51-.82,2-1.34,2.91a26.28,26.28,0,0,1-3.11,5.17c-2.29,2.53-6.46,2.42-8.37.09-1.77-2.15-1-8.27,1.6-8.61,2.24-.29,4.83-1.24,7.71-.14-.42,1.39-.75,2.87-1.32,4.26a31.05,31.05,0,0,0-1.61,3.73C382.35,39.22,382.83,34.82,384.29,30.28Z"/><path class="cls-1" d="M381.6,23.3l-5.33-5.88-.52.31,3.82,5.87c-3-1-6.95-5.23-7.15-7.94A3.17,3.17,0,0,1,373.7,13c3.73-1.51,7.09-.08,10.09,2.09,2.7,1.94,3.38,4.65,2.33,7.93a8.11,8.11,0,0,1-1,1.53L384,18.38l-.67,0-.69,4.28Z"/><path class="cls-1" d="M395,20.22l-6.82,3.65c2.71-4.76,9.7-6.18,13.77-2.76a5.06,5.06,0,0,1,.8,6.76c-1.27,1.59-5.4,2.35-6.87,1.16-.26-.21.09-1.29-.14-1.42-1.27-.7-3.56-.36-3.34-2.52C392.49,23.76,393.66,22.54,395,20.22Z"/><path class="cls-1" d="M378,25.1c-3.66,2.72-7-.82-10,1.06l11.75,2.63c-.55.63-.76,1-.92,1-5.4-.57-10.8-1.1-16.17-1.86a3.15,3.15,0,0,1-2.21-2c-.07-.76,1-1.86,1.82-2.42,3.1-2.09,6.53-1.89,9.91-.86C374,23.23,375.74,24.15,378,25.1Z"/></g></g></svg>