<svg xmlns="http://www.w3.org/2000/svg" viewBox="0 0 411.45 74.3"><defs><style>.cls-1{fill:#004b89;}</style></defs><g id="Capa_2" data-name="Capa 2"><g id="Capa_1-2" data-name="Capa 1"><path class="cls-1" d="M111.4,39a71.54,71.54,0,0,0-9.49-2.22c-2.63-.54-5.34-.74-7.91-1.47C92.83,35,91.92,33.78,90.89,33c1-1,2-2.69,3.16-2.86a44.78,44.78,0,0,1,10.53-.44c4.19.4,8.32,1.5,13.25,2.45,0-4.12-.15-7.92,0-11.7.14-2.64-1.2-3.53-3.44-3.79C109.38,16,104.33,15.17,99.26,15c-7.68-.3-15.32.37-22.5,3.43-9.11,3.88-13.13,12.73-9.93,21.5C69.07,46,74.2,48.63,80,50.18,84.2,51.32,88.56,52,92.82,53c1.85.44,4.54.74,4.1,3.27-.2,1.16-2.55,2.17-4.11,2.83a12,12,0,0,1-4.17.59,42.19,42.19,0,0,1-17.4-3.2C70.16,56,69,55.7,67.51,55.19c0,4.84,0,9.06,0,13.29a2.61,2.61,0,0,0,2.39,2.91c11.85,2.68,23.79,4.33,35.66.67A30.8,30.8,0,0,0,117,65.91C126.4,57.41,123.33,43.24,111.4,39Z"/><path class="cls-1" d="M62.44,33.72c-2.67-10.34-9.65-16.56-20.2-18a66.71,66.71,0,0,0-16-.11C7.78,17.51-1.24,28.57.14,46.94c0,.43.06.85.11,1.27C1.55,59.69,7.4,67.8,18.45,71.53c13.07,4.41,26.28,2.91,39.39-.11a3.59,3.59,0,0,0,2.25-2.49c.25-3.91.11-7.85.11-12.36-2.21.64-3.55,1.08-4.91,1.42-6.95,1.72-14,2.46-21,.89C30.45,58,27.51,56.11,27,51.19H31.8c9.63,0,19.26-.1,28.89,0,2.8,0,3.93-.93,3.57-3.68C63.67,42.92,63.59,38.19,62.44,33.72ZM40.38,37.87c-.06.49-1.19,1.13-1.88,1.2a50,50,0,0,1-5,.06v0c-1,0-2,0-3,0-3.79-.09-4.4-.85-3.44-4.59.72-2.8,1.89-5.4,5.07-6.14C34.4,27.9,36.67,28,38.34,30A9.88,9.88,0,0,1,40.38,37.87Z"/><path class="cls-1" d="M282.59,40.85c-1.69-15.71-10-24.52-25.41-25.7-12.4-1-24.42.54-33.58,10.52-.11.11-.5,0-1.1-.1,0-2.06,0-4.15,0-6.25-.05-4-.72-4.64-4.73-4.45-6,.29-10.44,3.18-13.71,8.07-.83,1.24-1.64,2.48-2.46,3.72a19.72,19.72,0,0,1-.68-6.88c.14-2.48-.69-3.59-3.36-3.53-6.37.15-12.74.14-19.11.05-2.39,0-3.23.88-3.22,3.22q.09,25,0,50.05c0,2.43,1,3.15,3.3,3.12,6.51-.08,13,0,19.54,0,4.44,0,4.45,0,4.49-4.43.05-5.8-.14-11.6.17-17.39.46-8.69,8-14.59,16-12.59,0,2.86-.14,5.81,0,8.75.69,12.29,7.35,21.18,19.07,24.82,12.84,4,25.76,2.65,38.58-.36a3.61,3.61,0,0,0,2.34-2.4c.25-4,.11-8.09.11-12.7-2.14.68-3.34,1.12-4.57,1.44-7.06,1.82-14.2,2.64-21.42,1.1-4.55-1-6.35-2.91-7.12-7.72h4.6c9.63,0,19.26,0,28.89.07,2.69,0,4-.77,3.7-3.62C282.71,45.38,282.83,43.1,282.59,40.85ZM259.09,38a2.14,2.14,0,0,1-1.58,1.06c-3.93.09-7.86.05-11.72.05-.92-6.32,1.68-10.65,6.22-10.93S260.83,33.91,259.09,38Z"/><path class="cls-1" d="M161.66,32.63a48.2,48.2,0,0,0,5.1,0c3.66-.09,3.67-.11,3.73-3.91,0-1.84,0-3.68,0-5.52-.12-7.79.95-6.78-6.69-6.88-.85,0-1.7-.06-2.55,0-2.18.18-3.08-.81-3-3,.07-3,0-5.94,0-8.91C158.16.18,158.14.15,154,.12c-4.67,0-9.35,0-14,0-9.1,0-9.1,0-9.1,9.23,0,6.56,0,6.64-6.63,7-2.14.1-3.1.77-3,3,.09,3,0,5.94,0,8.91,0,4.38,0,4.38,4.49,4.46,5,.08,5,.08,5.08,5.21.09,6.37-.05,12.75.45,19.08.77,9.89,6.14,15.4,16,16.86,7.14,1.06,14.12-.22,21-2.15a3.55,3.55,0,0,0,2.14-2.51c.22-4.48.1-9,.1-13.86-1.7.12-2.69.21-3.67.27-6.37.4-8.31-1.29-8.45-7.53-.09-4,.06-7.92-.06-11.88C158.19,33.64,159,32.41,161.66,32.63Z"/><path class="cls-1" d="M341.44,0c-6.79.16-13.59.17-20.38.07-2.59,0-3.45.9-3.44,3.46q.09,32.87,0,65.72c0,3,1.28,3.52,3.84,3.48,6.51-.1,13,0,19.53,0,3.93,0,4-.08,4-4.06,0-10.88,0-21.76,0-32.64h0c0-10.74-.06-21.48,0-32.22C345.05,1.11,344.28-.06,341.44,0Z"/><path class="cls-1" d="M313.31,3.56c0-3-1.26-3.54-3.82-3.5-6.51.11-13,0-19.53.05-3.9,0-4,.08-4,4.09,0,10.74,0,21.48,0,32.22h0c0,10.88.06,21.77,0,32.65,0,2.7.81,3.76,3.62,3.7,6.79-.16,13.59-.15,20.38,0,2.59,0,3.44-.89,3.43-3.45Q313.21,36.41,313.31,3.56Z"/><path class="cls-1" d="M411.17,36.21c-.21-8.85-4.83-15-13.08-18a65,65,0,0,0-14.46-3,72.84,72.84,0,0,0-26.93,2.07c-1.43.38-3.33.42-3.36,2.56-.06,4.45,0,8.89,0,13.81,1.79-.56,2.82-.92,3.88-1.2,3.68-1,7.33-2.38,11.07-2.73a48,48,0,0,1,12.2.55c4,.66,5.47,2.92,5.36,6.51-4.93,0-9.87-.16-14.79,0-5.72.22-11.26,1.38-16.13,4.6-7,4.63-8.82,11.53-7.63,19.3,1.11,7.2,6.26,10.75,12.88,12.46,5.17,1.34,10.49,1.65,15.43-.52,3.63-1.6,6.86-4.11,10.37-6.27,0,.42.14,1.2.17,2,.16,4.22.15,4.26,4.18,4.29,5.94,0,11.89,0,17.83.06,2.27,0,3.34-.55,3.31-3C411.3,58.54,411.45,47.37,411.17,36.21Zm-25.1,16.71c-1.26,4.67-4.92,7.27-9.4,6.67-2.45-.33-4.31-1.39-4.69-4.07s.27-5,2.84-6a56.91,56.91,0,0,1,7.29-1.9C386.46,47.89,387.18,48.8,386.07,52.92Z"/></g></g></svg>