<svg xmlns="http://www.w3.org/2000/svg" viewBox="0 0 411.45 98.31"><defs><style>.cls-1{fill:#cd2026;}</style></defs><g id="Capa_2" data-name="Capa 2"><g id="Capa_1-2" data-name="Capa 1"><path class="cls-1" d="M79,47.89c.47,10.84.32,21.15.39,31.45,0,2.55,0,5.11,0,7.66,0,1-.15,1.93-.25,2.89a8.86,8.86,0,0,1-8.51,7.29c-4.14,0-8.28.06-12.41,0a9.74,9.74,0,0,1-9.51-9.45c0-2.21-.06-4.41-.07-6.61q0-8.85,0-17.7c0-3.14-.11-3.1-3.06-3.08-2.47,0-4.93,0-7.4,0-1.76,0-3.52.15-5.27.25-1,.06-1.34.43-1.38,1.54,0,.7,0,1.41,0,2.11l0,22.2c0,.88,0,1.76,0,2.64A8.8,8.8,0,0,1,25.15,97a7.05,7.05,0,0,1-1.83.22c-4.49,0-9,0-13.47.05C5.57,97.36.52,93.17.62,87.9c.06-3.17,0-6.34-.05-9.51C.5,74.17.32,69.94.29,65.72Q.11,41.29,0,16.84c0-2.46.07-4.93.1-7.39A12.07,12.07,0,0,1,.65,6.07,6.77,6.77,0,0,1,4.51,1.63,14,14,0,0,1,9.89.41C11.65.37,23,.16,25.17.52a7.09,7.09,0,0,1,6,5.94,20,20,0,0,1,.2,2.89q0,11,.07,21.93c0,.8,0,1.59.05,2.38a1,1,0,0,0,1,1,6.84,6.84,0,0,0,.79,0l12.94,0a9.1,9.1,0,0,0,1.05-.08,1,1,0,0,0,.73-.68,8.33,8.33,0,0,0,.14-1.31c0-2.55-.12-5.1-.16-7.65,0-3.88.23-14.26.24-15.58a14.15,14.15,0,0,1,.65-3.89,6.2,6.2,0,0,1,3.1-3.79A12.54,12.54,0,0,1,56.67.33,93.37,93.37,0,0,1,66.7,0h4.23A7.2,7.2,0,0,1,77,3.18a9.27,9.27,0,0,1,2,5.63c0,.61,0,1.23,0,1.84Z"/><path class="cls-1" d="M186.25,91a56.94,56.94,0,0,1-13.58-2.18,33.35,33.35,0,0,1-14-7.65,51.91,51.91,0,0,1-5-5A31,31,0,0,1,146.94,62a64.6,64.6,0,0,1-.81-7.34,19.74,19.74,0,0,1,.13-3.68c.22-2,.31-4,.71-6a40.28,40.28,0,0,1,4.77-12.79,30.9,30.9,0,0,1,10.08-10.26,40.31,40.31,0,0,1,15.68-6,42.13,42.13,0,0,1,12.88-.35c1.83.27,3.68.34,5.5.65a27.42,27.42,0,0,1,10.37,3.71c1.33.86,2.72,1.63,4,2.56a28.29,28.29,0,0,1,3,2.62A9.12,9.12,0,0,1,215,27.69a5.13,5.13,0,0,1-.21,5.28A32.23,32.23,0,0,1,212.7,36c-1.42,1.79-2.9,3.54-4.42,5.25a7.52,7.52,0,0,1-1.83,1.49,5.68,5.68,0,0,1-6.46-.14,13.3,13.3,0,0,1-1.83-1.52,18.27,18.27,0,0,0-4.77-3.26,11.3,11.3,0,0,0-7.94-1c-.76.19-1.55.32-2.3.57A11.65,11.65,0,0,0,177,42.1a25.69,25.69,0,0,0-4.21,10.16,19.35,19.35,0,0,0,.33,8.63,10.93,10.93,0,0,0,5.65,7A23.83,23.83,0,0,0,185,70a1.89,1.89,0,0,0,2.24-1.39c.1-.33.19-.67.26-1a1.43,1.43,0,0,0-.82-1.74c-.64-.29-1.31-.53-1.94-.84a5.33,5.33,0,0,1-3-3.8,11.43,11.43,0,0,1-.29-2.09,21.45,21.45,0,0,1,1.37-8,9.26,9.26,0,0,1,.94-1.89,4.73,4.73,0,0,1,3.93-2.33,22.76,22.76,0,0,1,4.21.17c5.12.85,10.18,2,15.25,3.11a9.09,9.09,0,0,1,1.51.47,8,8,0,0,1,5.2,6.46,11.55,11.55,0,0,1,.09,2.88c-.6,6-1.53,11.87-2.41,17.78a27.73,27.73,0,0,1-.64,2.84,11.4,11.4,0,0,1-7.29,8.1,40.41,40.41,0,0,1-5.83,1.66c-2.77.63-5.6.56-8.4.84A21.23,21.23,0,0,1,186.25,91Z"/><path class="cls-1" d="M258.09,53.29a74.37,74.37,0,0,1,9.45.4,18.08,18.08,0,0,1,2.84.57,9.35,9.35,0,0,1,6.8,9c.05,1.94,0,3.87,0,5.81a19.17,19.17,0,0,0,.28,4.47c0,3.6.31,7.21-.27,10.8a11.49,11.49,0,0,1-2.8,5.87,16.2,16.2,0,0,1-6.2,4.36,38.72,38.72,0,0,1-7.62,2.08,60.32,60.32,0,0,1-8.88,1.18c-.88,0-1.75.24-2.63.29a37.73,37.73,0,0,1-19.42-3.93A43.42,43.42,0,0,1,215.3,82.8l-.51-.61a2.47,2.47,0,0,1-.53-2.22c.41-2.07.83-4.13,1.17-6.22a99.51,99.51,0,0,0,1.49-12.3c.05-1.4.17-2.81.26-4.21.21-3.05-1.26-5.21-3.68-6.83-.73-.49-1.52-.9-2.26-1.36a1.1,1.1,0,0,1-.51-1.37A39.14,39.14,0,0,1,212.55,43,44.26,44.26,0,0,1,223,29.83a21.63,21.63,0,0,1,5.59-3.45,44,44,0,0,1,13.51-3.33,63.93,63.93,0,0,1,9-.34,55.13,55.13,0,0,1,8.39.87A31.8,31.8,0,0,1,272,29.29a10.26,10.26,0,0,1,2.22,2.24,4.43,4.43,0,0,1,.54,4.72c-.14.32-.28.65-.44,1a34.8,34.8,0,0,1-5.58,8,8.87,8.87,0,0,1-3.94,2.55,4.94,4.94,0,0,1-3.11.06,19,19,0,0,1-2.21-.85c-1.34-.66-2.66-1.36-4-2.07a10,10,0,0,0-6.86-1.19c-1.21.23-2.42.41-3.61.75a10.1,10.1,0,0,0-5.79,4.33A23,23,0,0,0,235.57,58a21.76,21.76,0,0,0,.94,10.67,13.68,13.68,0,0,0,5.3,6.41,3.52,3.52,0,0,0,.7.35A21.64,21.64,0,0,0,249.7,77a4.79,4.79,0,0,0,1.31-.15,1.55,1.55,0,0,0,1.2-1.27,5.19,5.19,0,0,0,.07-1.31,1.47,1.47,0,0,0-1-1.42c-.5-.17-1-.31-1.51-.48a6.52,6.52,0,0,1-3.57-3,10,10,0,0,1-1.39-4.5c-.09-1.41-.11-2.82-.08-4.22A7.43,7.43,0,0,1,252,53.33c1.23-.1,2.47,0,3.7,0Z"/><path class="cls-1" d="M118.92,53.68c0-2.65-.24-18.48.14-21.63a10.23,10.23,0,0,1,.5-2,7.71,7.71,0,0,1,6-5.3,41,41,0,0,1,8.42-.53,17.2,17.2,0,0,1,4.17.59,8.72,8.72,0,0,1,3.66,2,4.89,4.89,0,0,1,1.6,2.67,14.52,14.52,0,0,1,.41,2.34c.16,3.34.63,6.66.51,10,0,.36,0,.71,0,1.06a77.23,77.23,0,0,0-.24,9.5c0,6.42,0,12.85,0,19.28a28.52,28.52,0,0,1-.48,6,23.16,23.16,0,0,1-8.12,13.25,31.06,31.06,0,0,1-15.46,6.91,44.3,44.3,0,0,1-9.48.36,34.66,34.66,0,0,1-10.27-2.28,45.57,45.57,0,0,1-4.59-2,23.26,23.26,0,0,1-8-6.72,16.11,16.11,0,0,1-2.6-4.87,40.1,40.1,0,0,1-1.56-7.21A62.59,62.59,0,0,1,83.15,68c0-7.48-.07-15-.14-22.45,0-1.94-.11-3.87-.25-5.8a40.9,40.9,0,0,1,.44-7.9,10.89,10.89,0,0,1,.63-2.28,7.34,7.34,0,0,1,5.82-4.83,36.83,36.83,0,0,1,9.72-.49,15,15,0,0,1,3.11.58A7.45,7.45,0,0,1,108,31.51c.1,1,.07,1.93.08,2.9q0,16.52.07,33a30,30,0,0,0,.36,4.73A5.56,5.56,0,0,0,109.82,75a5,5,0,0,0,5.22,1.7,8.57,8.57,0,0,0,1-.3,4.35,4.35,0,0,0,3-3.72,21.57,21.57,0,0,0,.1-2.9Q119,61.74,119,53.68Z"/><path class="cls-1" d="M408.46,33a35.06,35.06,0,0,1-.24,8.44v.05a4.11,4.11,0,0,1-2.46,3.13,3,3,0,0,1-2.62,0,8,8,0,0,1-1.77-1.14,19.48,19.48,0,0,0-10-4.46,12.92,12.92,0,0,0-1.83-.3,5.94,5.94,0,0,0-5,1.93,2.83,2.83,0,0,0-.67,1.74,5,5,0,0,0,1.26,3.6,9.48,9.48,0,0,0,3.4,2.43c2,.9,4,1.78,6,2.7,1.76.81,3.51,1.64,5.23,2.52A21.45,21.45,0,0,1,408.75,62a18.27,18.27,0,0,1,2.7,9.26,31.09,31.09,0,0,1-1,8.09A22.44,22.44,0,0,1,402,91.78a25.3,25.3,0,0,1-12.5,5.28,32.48,32.48,0,0,1-8.42.33c-1.91-.25-3.86-.27-5.76-.69a34.62,34.62,0,0,1-12.55-5.31,24.86,24.86,0,0,1-2.46-2,5.11,5.11,0,0,1-1.49-4.87,8.81,8.81,0,0,1,.48-1.83,30.43,30.43,0,0,1,4.33-8.13,5.88,5.88,0,0,1,2.71-2,4,4,0,0,1,2-.17,10.71,10.71,0,0,1,4.41,1.65c.93.66,1.88,1.31,2.85,1.91a24,24,0,0,0,6.22,2.85,9.73,9.73,0,0,0,3.39.32,3.43,3.43,0,0,0,3.11-2.78,3.18,3.18,0,0,0-.07-1.3,4.71,4.71,0,0,0-1.54-2.3,12.79,12.79,0,0,0-2.95-2c-2.74-1.37-5.47-2.76-8.22-4.1a76.32,76.32,0,0,1-8.22-4.76,19.7,19.7,0,0,1-6-6.58,12.3,12.3,0,0,1-1.75-6c-.05-1.85-.09-3.7,0-5.54a22.19,22.19,0,0,1,3.38-10.44,21.14,21.14,0,0,1,15.05-10.16,55.25,55.25,0,0,1,11.55-1,38.38,38.38,0,0,1,10.42,1.46,19.89,19.89,0,0,1,5,2.25A10.49,10.49,0,0,1,406.43,27a5.27,5.27,0,0,1,1.8,3.43C408.31,31.3,408.39,32.15,408.46,33Z"/><path class="cls-1" d="M334.29,96.17H321.35a12.93,12.93,0,0,1-3.67-.35,5.66,5.66,0,0,1-1-.27c-2.87-1.44-5.1-3.45-5.83-6.74a19.7,19.7,0,0,1-.36-4.2c0-7.4,0-14.79-.05-22.19q-.06-9.51-.22-19c0-2.55-.21-5.1-.31-7.65a33.13,33.13,0,0,1,.35-5.26,7.25,7.25,0,0,1,4.81-6.1,10.75,10.75,0,0,1,3.85-.82c3.78-.09,7.56-.25,11.35-.31,4.4-.06,18.16-.08,22,1.35a4.45,4.45,0,0,1,2.72,3,5.3,5.3,0,0,1,.27,1,29.12,29.12,0,0,1,.27,6.05c-.09.7-.08,1.41-.14,2.11a4.94,4.94,0,0,1-4.88,4.91c-.7.06-1.41,0-2.11,0l-10.57,0c-.7,0-1.41,0-2.11,0-.93,0-1.37.4-1.38,1.24,0,1.93,0,3.87,0,5.8a1.08,1.08,0,0,0,1,1c.7.05,1.4.07,2.11.07l6.07,0a6.94,6.94,0,0,1,3.06.71,4.38,4.38,0,0,1,2.44,3,12.54,12.54,0,0,1,.38,2.34c.09,1.85.13,3.7.13,5.55a7.71,7.71,0,0,1-.27,2.08,6.46,6.46,0,0,1-6.14,4.93c-.88.08-1.76,0-2.64.05-1.68,0-3.35,0-5,0-.74,0-1.1.41-1.13,1.17a40.2,40.2,0,0,0,.39,6.85.92.92,0,0,0,.71.7c.7,0,1.4.1,2.1.1l10.83,0a13.59,13.59,0,0,1,3.91.51,5.32,5.32,0,0,1,4.15,4.89c.09.87.21,1.75.28,2.62a17.91,17.91,0,0,1-.74,6.26,5.38,5.38,0,0,1-3.54,3.64,11.64,11.64,0,0,1-4.14.72c-4.23,0-8.45,0-12.68,0Z"/><path class="cls-1" d="M305.68,59.85V61.7l.06,23c0,1,0,1.94-.05,2.9a9.21,9.21,0,0,1-5.15,7.78,6.38,6.38,0,0,1-3,.77c-2.55,0-5.11.08-7.65,0a9.27,9.27,0,0,1-6.91-3.38,7.31,7.31,0,0,1-1.84-4.53c-.15-2.82-.26-5.63-.29-8.44-.05-5.28-.06-10.56-.14-15.84-.11-6.86-.28-13.72-.4-20.58,0-2.46,0-4.93,0-7.39a36.94,36.94,0,0,1,.42-5.26c.67-4.72,3.66-6.43,7.12-7a9.65,9.65,0,0,1,1.32-.06h9c3.52,0,5.92,2.06,7,5.38a15.27,15.27,0,0,1,.49,2.86,23.39,23.39,0,0,1,0,2.37v25.6Z"/></g></g></svg>