<svg xmlns="http://www.w3.org/2000/svg" viewBox="0 0 411.47 128.41"><defs><style>.cls-1{fill:#032d68;}.cls-2{fill:#fff;}</style></defs><g id="Capa_2" data-name="Capa 2"><g id="Capa_1-2" data-name="Capa 1"><path class="cls-1" d="M404.08,64.18c.37-.36.72-.75,1.06-1.15,3.18-3.85,4.35-9,3.3-14.56a21,21,0,0,0-7.63-12.55,36.34,36.34,0,0,0-21.12-6.65,33.47,33.47,0,0,0-24.58,10.38,26.53,26.53,0,0,0-1.89,2.23A37.61,37.61,0,0,0,324.17,27.7a37.2,37.2,0,0,0-5.47.41,40.63,40.63,0,0,0-19.37,8.23,20.56,20.56,0,0,0-5.08-10.57,19.65,19.65,0,0,0-14-6.47h-.68c-10.62,0-18.79,7.13-20.29,17.27a39,39,0,0,0-8.51-2.18c-.31-.05-.63-.09-.95-.12.42-2,.82-4,1.18-6.06a19.11,19.11,0,0,0-3-14.43,18.28,18.28,0,0,0-11.89-7.49A20.93,20.93,0,0,0,232.51,6C224,6,217.43,11.63,215,21.12c-.88,3.49-2,8.47-3.27,14C206.63,26.55,198.17,22,187.18,22c-1.16,0-2.38.05-3.61.15A32.23,32.23,0,0,0,163.88,31l-.26.24a38.7,38.7,0,0,0-10.12-1.43,30,30,0,0,0-18.24,6,18.1,18.1,0,0,0-5.84-.94,22.64,22.64,0,0,0-8.17,1.6l-.47.2-.38-.42a21.07,21.07,0,0,0,3-10.29,20.57,20.57,0,0,0-5.75-14.85A19.63,19.63,0,0,0,103.49,5,21.1,21.1,0,0,0,92.27,8.15a23.09,23.09,0,0,0-9.85-6.83A20.52,20.52,0,0,0,75.27,0,19.7,19.7,0,0,0,62.38,4.93c-2,1.68-11.31,12.78-20.17,23.54-.16-1.94-.32-3.68-.47-5-1.3-12-8.9-19.09-20.32-19.09-.71,0-1.44,0-2.2.08C6.9,5.28-.46,13.86,0,26.8.27,33.35,4,98.43,5.51,111c.66,5.51,3.45,12.77,13,16.09a23.16,23.16,0,0,0,7.55,1.28A21.8,21.8,0,0,0,48,106.26c0-1.62-.2-5.3-.49-9.74,9.07,9.07,19,18.75,24,22.57a22.24,22.24,0,0,0,13.66,4.76,22.84,22.84,0,0,0,17-7.87,21.33,21.33,0,0,0,4.19-6.79,17.88,17.88,0,0,0,6.2,1.09h0a18.89,18.89,0,0,0,10.21-3.06,16.21,16.21,0,0,0,14.6,8.12,27.53,27.53,0,0,0,7.19-1,16.3,16.3,0,0,0,12.32-14.19,14.76,14.76,0,0,0,13.25,7.3,22.11,22.11,0,0,0,3.36-.27c6.59-1,11.19-3.49,14.08-7.58a16.05,16.05,0,0,0,2.79-7.5,13.48,13.48,0,0,0,5.22,4.87,14.79,14.79,0,0,0,5.83,1.69c2.54,7,9.21,11.69,17.29,11.69a20.55,20.55,0,0,0,4.35-.47,32,32,0,0,0,20.26,6.83h0a38.08,38.08,0,0,0,4.49-.27c7.29-.86,14.2-4.35,20.53-10.37l.56-.56q.24,2,.51,3.9a17.53,17.53,0,0,0,17.44,15.44,19.29,19.29,0,0,0,12.38-4.63,19,19,0,0,0,6.86-14,35.69,35.69,0,0,0,16.62,4c7.69,0,19.23-2,28.64-8.23a19.42,19.42,0,0,0,8.36,6.48,48.78,48.78,0,0,0,18.18,3.71h0a42.26,42.26,0,0,0,12.47-1.88c12.53-3.86,20.61-13.85,21.08-26.08C411.68,78.06,410.33,70.48,404.08,64.18Z"/><path class="cls-2" d="M58,59.11c5.18-6,23.8-27.14,27.48-32,5.1-6.71,2.62-14.1-5.31-17A9.83,9.83,0,0,0,69.8,12c-2,1.7-23.92,28.05-34.09,41,0,0-1.2-21-2.06-28.88-.84-7.71-4.8-10.86-12.15-10.34-7,.5-10.45,4.49-10.16,12.29.25,6.86,3.95,70.63,5.38,82.67.64,5.33,3.75,7.07,6.54,8a12.19,12.19,0,0,0,16.51-11.65c0-5-2.41-34.93-2.41-34.93S69,103,78.46,110.23c5.58,4.3,12.73,3.41,17.5-1.9,4.22-4.68,3.79-10-1.32-15.45C93.57,91.71,59.39,60.73,58,59.11Z"/><path class="cls-2" d="M103.68,35.79a10.62,10.62,0,0,0,10.89-10.56,10.45,10.45,0,0,0-10.2-10.86c-6.72,0-10.87,4.65-10.93,10.71C93.4,30.81,97.59,35.78,103.68,35.79Z"/><path class="cls-2" d="M118.55,60.31c-.69-4.43-1.16-8.91-2.17-13.26-1.28-5.49-4.86-8.06-9.5-7.42-5.19.71-8.13,4.34-7.39,10.11,1.84,14.36,3.76,28.72,6.1,43,1.12,6.86,8.84,8.94,14.07,4.27,2.61-2.33,3.39-5.22,3.21-8.58Q120.71,74.38,118.55,60.31Z"/><path class="cls-2" d="M387.94,65.2c-3.4-1.46-9.33-2.9-12.66-4.49l0,0c-2.8-1.41-2-6,1.16-6.16,4-.15,8.44,2.68,12.05,3.52,6.12,1.43,10-2.31,8.87-8.4a11.29,11.29,0,0,0-3.83-6.52c-8-5.84-23-7.64-32.73,2.57A17.06,17.06,0,0,0,364.43,72c3.39,2,8.86,4.15,12.41,5.84l2.58,1.24c3.54,1.72,1.79,7.16-2.07,6.4a21.86,21.86,0,0,1-2.91-.84c-2.74-.93-7.14-3.12-9.94-3.79-3.92-.94-7.2,1-8.3,4.28A10.57,10.57,0,0,0,362,98.33c7.77,3.12,15.84,4.06,24,1.55,8.66-2.67,13.86-9,14.17-17.07C400.44,74.61,396.59,68.91,387.94,65.2Z"/><path class="cls-2" d="M347.37,69.7c-4.17,1.09-4.1,6.25-8.32,9.25-5.24,3.72-12.19,5.29-18.26,3.5a7.6,7.6,0,0,1-5.05-5s18.7-6.56,28.26-10.27c5.42-2.07,6.58-4.48,5.43-9.72-2.68-12.23-15.66-22.53-30.27-20.31C300.92,39.91,293,54.15,294,69.43c1.2,17.29,12.19,29.94,27.66,29.94,9.4,0,28.24-3.71,33.28-19.57C357.1,73.11,352.32,68.4,347.37,69.7Zm-36.8-3.93c-.08-13.23,12.71-18.27,20.44-7.71Z"/><path class="cls-2" d="M249.05,43.36a37.77,37.77,0,0,0-11.63.58c1.32-6.14,2.73-11.95,3.78-17.83,1-5.36-2.14-9.78-7-10.63-5.25-.91-8.5,1.83-10,7.62-3.41,13.56-11.29,51.2-11.29,51.2-1.67-6.94-4.77-21-6.59-27.87-3-11.33-10.1-16.13-21.8-15.17a22.45,22.45,0,0,0-13.69,6.19c-1.57,1.51-3.15,3-4.51,4.24-11.75-4.82-21.75-3.62-29.73,6-1.22-3.07-5.45-5.07-11.18-2.85-4.71,1.83-5.09,7.38-4.23,12.39.88,5.18,2,10.35,3.23,15.49,2,8.74,4,17.51,6.37,26.17,1.55,5.75,6.1,6.47,11.79,4.93,5.27-1.44,6-6,4.88-11.41-1.37-6.46-3.12-12.84-4.61-19.28a76.17,76.17,0,0,1-1.73-9.33c-.33-3.06.56-5.74,3.65-7.26,3.36-1.65,7.72-1.35,9.67,1.41,4,5.64,7.3,24,9.47,32.21,1.38,5.19,3.52,7.09,8.41,6.34,8.35-1.28,9.51-5.15,8.4-11-1-5.18-2.55-10.25-3.75-15.4-1.08-4.63-2.21-9.27-2.94-14a6.66,6.66,0,0,1,3.59-7.33c3.22-1.75,7.8-1.76,9.64,1.14,3.82,6,7.21,22,9,28.89,1.33,5.25,1.9,7.49,4,8.6a5.62,5.62,0,0,0,4.17.33l6.19-1.71s-.84,4.54-.54,6.55c1,6.6,8.92,9.12,15.19,4.79,0,0,6.49,10,21.12,8.25,5.44-.64,10.42-3.46,14.89-7.71,8.43-8,11.74-18.5,10.52-29.66C270.26,54.74,262.31,45.22,249.05,43.36Zm-7.3,44.09C235.58,87.37,231,82.16,231,75.18c0-8.1,5.71-15.41,12-15.24s11.6,5.79,11.69,12.35C254.73,80.48,248.73,87.55,241.75,87.45Z"/><path class="cls-2" d="M278,49.91a10.62,10.62,0,0,0,11.19-10.24,10.46,10.46,0,0,0-9.9-11.15c-6.72-.19-11,4.35-11.22,10.39C267.9,44.64,272,49.74,278,49.91Z"/><path class="cls-2" d="M292.2,74.84c-.56-4.44-.91-8.93-1.79-13.31-1.12-5.52-4.62-8.2-9.29-7.69-5.2.57-8.25,4.11-7.67,9.9,1.43,14.41,2.95,28.81,4.88,43.16.92,6.89,8.58,9.18,13.94,4.66,2.68-2.26,3.54-5.12,3.45-8.48Q294,89,292.2,74.84Z"/></g></g></svg>