<svg xmlns="http://www.w3.org/2000/svg" viewBox="0 0 411.45 70.23"><defs><style>.cls-1{fill:#57257d;}</style></defs><g id="Capa_2" data-name="Capa 2"><g id="Capa_1-2" data-name="Capa 1"><path class="cls-1" d="M69.08,7.72a6.05,6.05,0,0,0-6-6.26H50.59c-3.13,0-6.87,2.11-6.87,6.26s3.71,6,6.75,6.75v12.8a1.54,1.54,0,0,1-2.64,1.07L25.29,5.06h0a9.62,9.62,0,0,0-6.61-3.13H9.18C4.15,1.94,0,3.83,0,8.26c0,3.87,4.48,6.86,8.19,8.29V56.24c-2.86.45-5.84,2.64-5.84,6.17a6,6,0,0,0,6,6.26H20.84c3.12,0,6.86-2.11,6.86-6.26a6.19,6.19,0,0,0-3.89-5.72A5.35,5.35,0,0,1,21,51.86V41.49a2.43,2.43,0,0,1,4.19-1.69C31,45.85,38.64,53.36,45.5,59.39,51.33,64.52,54.24,70,60,68.67c3.95-.9,2.6-13.65,2.56-27,0-13.79.06-27.4.06-27.4C65.43,13.83,69.08,11.25,69.08,7.72Z"/><path class="cls-1" d="M203.14,7.72a6.05,6.05,0,0,0-6-6.26H184.65c-3.13,0-6.87,2.11-6.87,6.26s3.71,6,6.75,6.75v12.8a1.54,1.54,0,0,1-2.64,1.07L159.35,5.06h0a9.64,9.64,0,0,0-6.61-3.13h-9.49c-5,0-9.17,1.89-9.18,6.32,0,3.87,4.48,6.86,8.19,8.29V56.24c-2.86.45-5.84,2.64-5.84,6.17a6,6,0,0,0,6,6.26H154.9c3.12,0,6.86-2.11,6.86-6.26,0-2.94-1.79-4.68-3.89-5.72A5.35,5.35,0,0,1,155,51.86V41.49a2.43,2.43,0,0,1,4.19-1.69c5.82,6.05,13.49,13.56,20.35,19.59C185.39,64.52,188.3,70,194,68.67c4-.9,2.6-13.65,2.56-27,0-13.79.06-27.4.06-27.4C199.49,13.83,203.13,11.25,203.14,7.72Z"/><path class="cls-1" d="M239.21,62.69c0,2.75-1.67,4.29-3.77,5.16a17.46,17.46,0,0,1-6.33,1H214.82c-3.41,0-8.91-1.53-8.91-6.18a5.76,5.76,0,0,1,2-4.84,6.35,6.35,0,0,1,2.61-1.15V15.43c-3.07-1.69-5.9-4.4-5.9-7.79,0-2.75,1.67-4.29,3.77-5.16a17.46,17.46,0,0,1,6.33-1H229c3.41,0,8.91,1.52,8.91,6.18a5.76,5.76,0,0,1-2,4.84,7.48,7.48,0,0,1-4.6,1.34l-.18,0v40C234.89,55.36,239.21,58.51,239.21,62.69Z"/><path class="cls-1" d="M101.6.37C84.4.37,70.46,16,70.46,35.3S84.4,70.23,101.6,70.23,132.73,54.6,132.73,35.3,118.79.37,101.6.37Zm-.24,56c-5.23,0-9.46-9.43-9.46-21.08s4.23-21.07,9.46-21.07,9.45,9.43,9.45,21.07S106.58,56.38,101.36,56.38Z"/><path class="cls-1" d="M345,45.21c-1.44,1.27-3.55,5.32-5,7.59-2.71,4.34-7.61,4.58-10,4.67a21.27,21.27,0,0,1-8.92-1.67V39.36a5.34,5.34,0,0,1,4,.43c2.8,1.9.63,9.12,5.87,9.12s5.39-7.52,5.93-12.76-.73-18.07-4.94-17.41c-4.38.69-4.15,8.22-5.24,9.67-.86,1.15-4.27.46-5.6.14V13.15a29.27,29.27,0,0,1,4.34-.53c6-.27,8.56.09,10.72,1.85,2.37,1.92,4.06,5.3,4.82,6,2.57,2.25,6.86.71,6.86-4.25,0-8.34-.89-13.94-3.73-15.44-4.46-2.35-7.11,1.68-10.3,1.56,0,0-35-.68-37.1.18s-3,2.41-3,5.16c0,3.39,3.68,6.1,6.75,7.79V56.7a6.24,6.24,0,0,0-2.61,1.15c-1.23.94-3.29,3.55-3.29,5.88,0,4.66,6.76,5.14,10.17,5.14h36.87a7.54,7.54,0,0,0,5.47-2.61c2-2.53,4.25-9.74,4.7-16.8C352,46.54,347.54,43,345,45.21Z"/><path class="cls-1" d="M241.44,23.44c0-5.6,4.4-22.21,24.09-22.52A19.33,19.33,0,0,1,273,2.36c1.81.91,3.14,2.83,5.12,2.29,1.11-.3.91-3.07,3.8-2.17s9.39,8.49,9,15.72-6.32,8.67-10.12,2.44S272.39,12.48,269,13.2a4.42,4.42,0,0,0-3.4,6.08c3.36,10.62,18.61,2.17,25.4,20.15,7,18.42-10.14,29.81-25.76,29.81s-20.78-5.15-23.76-12.65-2.14-15.38,3.61-14.27c6.69,1.3,4.07,15,17,14.66,0,0,5.82.25,7.26-2.92s-3.16-6.77-11.2-9.48S241.44,36.72,241.44,23.44Z"/><path class="cls-1" d="M402.72,31.63c3.85.18,8.73-1.38,8.73-11.74S404.82,2.66,401.09,4.47s-5.66-.48-7.83-2S377.6-1.37,367.73,5.73,353,21.4,353,34.43s6.54,35.44,29.54,35.44,32.7-17.46,26.2-24S395,61,383.26,48.67s-11.66-32.77-.12-34C394.83,13.5,394.05,31.22,402.72,31.63Z"/></g></g></svg>