<svg xmlns="http://www.w3.org/2000/svg" viewBox="0 0 411.47 88.62"><defs><style>.cls-1{fill:#191777;}</style></defs><g id="Capa_2" data-name="Capa 2"><g id="Capa_1-2" data-name="Capa 1"><rect class="cls-1" x="264.85" y="12.53" width="66.65" height="13.79"/><rect class="cls-1" x="264.85" y="62.3" width="66.65" height="13.79"/><rect class="cls-1" x="264.85" y="37.42" width="56.45" height="13.79"/><path class="cls-1" d="M160.2,12.53H114.67V25.09H160.2a7.77,7.77,0,0,1,8,7.58,7.78,7.78,0,0,1-8,7.59H114.67V76.09h13.17V52.81H160.2c11.67,0,21.12-9,21.12-20.14h0C181.32,21.55,171.87,12.53,160.2,12.53Z"/><polygon class="cls-1" points="256.59 76.09 214.16 12.53 173.57 76.09 191.19 76.09 215.08 39.24 238.97 76.09 256.59 76.09"/><path class="cls-1" d="M370,62.3h41.47V76.09H350c-2.83,0-5.12-2.56-5.12-5.73V68.19c0-1.52-.32-2.94,1.5-4.77C356.13,53.6,390,26.32,390,26.32H344.84V12.53H406c3.05,0,5.52,2.77,5.51,6.19l0,2.11c0,1.65,0,4-1.66,5.71C400.27,36,370,62.3,370,62.3Z"/><path class="cls-1" d="M44.31,0A44.31,44.31,0,1,0,88.62,44.31,44.31,44.31,0,0,0,44.31,0ZM41,60c.21,3-1.3,5.81-4.25,5.81H20.46A4.52,4.52,0,0,1,16.21,60l9.87-28.84c-.87,0-1.57-1.23-1.31-2.41a3,3,0,0,1,.65-1.45A2.17,2.17,0,0,1,27,26.61H38.75A2.33,2.33,0,0,1,41.09,29a2.25,2.25,0,0,1-.64,1.45,2.16,2.16,0,0,1-1.11.62S40.51,52.55,41,60Zm27.05,5.81H49.66c-2.95,0-3.32-3.92-3.13-6.93C47.06,50.63,48,26.64,48,26.64c-2,0-4.36-1.66-4.36-3.71V19.1a3.71,3.71,0,0,1,3.71-3.71h6.51A5.61,5.61,0,0,1,59.45,21c0,.14,0,.27,0,.4s0,0,0,0,0,.29,0,.44v1.9c0,2.71,0,6.93.08,10.05a14.12,14.12,0,0,0,2.18,7.42C64.93,46.33,70.8,55.87,72.34,60A4.44,4.44,0,0,1,68.09,65.78Z"/></g></g></svg>