<svg xmlns="http://www.w3.org/2000/svg" viewBox="0 0 411.45 212.01"><defs><style>.cls-1{fill:#00b0ae;}.cls-2{fill:#fee624;}.cls-3{fill:#b8e2e2;}</style></defs><g id="Capa_2" data-name="Capa 2"><g id="Capa_1-2" data-name="Capa 1"><path class="cls-1" d="M.14,113.45c0-2.14,0-4.28,0-6.42a59,59,0,0,1,4.46-22.1,34.47,34.47,0,0,1,10-13.48,32.86,32.86,0,0,1,15.25-6.9,41.24,41.24,0,0,1,8.28-.83A34.65,34.65,0,0,1,52.83,67a27,27,0,0,1,8.58,6.58c4.22,4.86,6.48,10.52,7.73,16.7a23,23,0,0,1,.5,5.1c0,2.14,0,4.29,0,6.43-.37,10.08-3.15,19.4-9.13,27.62a44.77,44.77,0,0,1-13.48,12A61.71,61.71,0,0,1,25.77,149c-2.47.44-2.65.73-2.28,3.26.42,2.82.75,5.65,1.11,8.48.39,3,.78,6.08,1.15,9.11.35,2.76.67,5.52,1,8.28s.7,5.66,1.06,8.48c.2,1.56.43,3.11.62,4.66a8.35,8.35,0,0,1,0,1.5,3.26,3.26,0,0,1-2.24,3.1,10.43,10.43,0,0,1-2.91.62,59.84,59.84,0,0,1-6,0,10.27,10.27,0,0,1-7.41-3.35,9.46,9.46,0,0,1-2-3.74,65.19,65.19,0,0,1-1.69-6.85c-.66-3.72-1.17-7.46-1.67-11.2-.39-3-.65-5.95-1-8.92-.38-3.33-.82-6.65-1.17-10-.23-2.19-.34-4.4-.52-6.6-.23-2.7-.48-5.39-.73-8.08,0-.14,0-.28-.06-.43-.16-2.7-.36-5.4-.47-8.11C.38,124,.2,118.73,0,113.46Zm21.78,17.71c.4-.06.75-.08,1.09-.16a44.49,44.49,0,0,0,12.58-4.73,29.39,29.39,0,0,0,8.46-6.77,26.5,26.5,0,0,0,6.26-17.12c0-1.08,0-2.15,0-3.22a19.74,19.74,0,0,0-1.51-7.51,12.54,12.54,0,0,0-3.42-5.12A13.54,13.54,0,0,0,30.77,84.4a13.87,13.87,0,0,0-6.32,6.19A23.41,23.41,0,0,0,22,96.75a62.72,62.72,0,0,0-1.69,14.83c0,2.36,0,4.72.09,7.07.18,3.13.52,6.24.76,9.37A7.84,7.84,0,0,0,21.92,131.16Z"/><path class="cls-1" d="M129.17,125.75c5.17-4.51,10.71-7.14,17.5-6.85A20.27,20.27,0,0,1,163,127.41a9.13,9.13,0,0,0,1-.75c.77-.74,1.52-1.51,2.26-2.28a18.53,18.53,0,0,1,9.65-5.22,3.06,3.06,0,0,1,.41-.1c5.48-.44,10.85-.24,15.77,2.67a16.47,16.47,0,0,1,5.62,5.45,24.06,24.06,0,0,1,3.83,13c.07,14.49,0,29,0,43.47,0,2.62-1.12,3.83-3.73,3.91a26,26,0,0,1-7.46-.39,10.12,10.12,0,0,1-7.19-6.43,13.32,13.32,0,0,1-.79-2.89,42.61,42.61,0,0,1-.57-5.73c-.06-8.85,0-17.7,0-26.56a14,14,0,0,0-.59-4.21,5.55,5.55,0,0,0-5.28-3.93,14.43,14.43,0,0,0-3.81.43c-3.43,1-5.1,3.1-5.69,7.22a16.71,16.71,0,0,0,0,2.35v31.05a7,7,0,0,1-.54,3.34,4.47,4.47,0,0,1-2,2.12,9.38,9.38,0,0,1-5.61.94c-.49-.08-1-.2-1.47-.28-4.94-.82-7.8-3.87-9.07-8.54a18.06,18.06,0,0,1-.6-4.87c0-8.35,0-16.7,0-25.06a15,15,0,0,0-.58-4.22c-.85-3-2.66-4.35-5.76-4.47-4.66-.18-7.56,2.27-8.95,6.45a12.83,12.83,0,0,0-.52,4.23q0,18.31,0,36.62c0,.64,0,1.29,0,1.93a3.19,3.19,0,0,1-2.89,3.4c-4.37.51-8.36-.36-11.7-3.47a14.71,14.71,0,0,1-4.55-8.06,27.47,27.47,0,0,1-.65-5.51q0-22.8,0-45.61a10.77,10.77,0,0,1,.48-3.8,10.05,10.05,0,0,1,1.31-2.67,13.45,13.45,0,0,1,8.13-5.17,12.8,12.8,0,0,1,2.55-.22A4.59,4.59,0,0,1,128.6,119a19.58,19.58,0,0,1,.53,3.58C129.22,123.63,129.16,124.69,129.17,125.75Z"/><path class="cls-1" d="M208,172.13c0-9.42-.08-18.85,0-28.27a51.29,51.29,0,0,1,1.76-13.32,25.71,25.71,0,0,1,3.68-8.16,18.79,18.79,0,0,1,12.16-7.69c2.1-.39,4.23-.62,6.36-.81a17.61,17.61,0,0,1,3,.15,40,40,0,0,1,7,1.07,26.66,26.66,0,0,1,12.45,7.2,24.21,24.21,0,0,1,4,6,28.16,28.16,0,0,1,3.08,13.85c-.29,7.84-1.67,15.46-5.61,22.41a35.79,35.79,0,0,1-10,11.28,45.91,45.91,0,0,1-18.37,7.8c-3.14.64-2.79.54-2.79,3.42,0,6.71,0,13.42,0,20.14a12.29,12.29,0,0,1-.08,1.92,2.83,2.83,0,0,1-2.1,2.45,5,5,0,0,1-1,.27c-2.56.12-5.14.37-7.65-.36a7.14,7.14,0,0,1-5.41-6A31.92,31.92,0,0,1,208,200c0-9.28,0-18.57,0-27.85Zm16.75-17.46q0,5.24,0,10.49c0,.57,0,1.14,0,1.71a.88.88,0,0,0,1,.87,21.06,21.06,0,0,0,2.74-.41A18.54,18.54,0,0,0,242,156.51a32.55,32.55,0,0,0,2.73-15c-.19-4.31-2.1-7.67-6.28-9.37a10.69,10.69,0,0,0-9.11.48A7,7,0,0,0,225.9,137a25.65,25.65,0,0,0-1.15,7.37C224.69,147.82,224.74,151.24,224.73,154.67Z"/><path class="cls-1" d="M86.53,177.4c-.77.9-1.35,1.51-1.86,2.18A21.46,21.46,0,0,1,76.53,186a18.76,18.76,0,0,1-14.77.93,15.44,15.44,0,0,1-6.18-3.74c-1.09-1.12-2.2-2.24-3.18-3.46A19.86,19.86,0,0,1,48.33,170c-.88-6.05.08-11.86,3.83-16.88a25,25,0,0,1,8-7,48.82,48.82,0,0,1,16.16-5.37,52.36,52.36,0,0,1,9.35-.85,7.68,7.68,0,0,0,1.07-.06,1.11,1.11,0,0,0,1.12-1.08c.37-2.78-.84-5.81-3.68-6.75a16.91,16.91,0,0,0-5-1c-1.28,0-2.57,0-3.85,0A3.88,3.88,0,0,1,72,129.12a9,9,0,0,1-.87-8.78,7.13,7.13,0,0,1,4.53-4,17.54,17.54,0,0,1,8.62-1c1,.19,2,.14,3,.27a20.73,20.73,0,0,1,6.1,1.91,17.55,17.55,0,0,1,7.59,7,26.27,26.27,0,0,1,3.51,10.68,49,49,0,0,1,.33,5.54q0,21,0,42a16.87,16.87,0,0,1-.29,3.18,2.86,2.86,0,0,1-2.87,2.43,24.87,24.87,0,0,1-8.29-.61c-3.57-1-5.75-3.29-6.2-7.07C87,179.72,86.76,178.74,86.53,177.4ZM67.44,166.29a7.86,7.86,0,0,0,.61,3.5,4.83,4.83,0,0,0,5.3,3,20.08,20.08,0,0,0,2.31-.46A15,15,0,0,0,82.6,168a18.17,18.17,0,0,0,4.51-9.73,27,27,0,0,0,.42-4c0-1.11-.28-1.45-1.37-1.41a33,33,0,0,0-4.45.44,23.08,23.08,0,0,0-8.94,3.34C69.44,158.84,67.38,161.85,67.44,166.29Z"/><path class="cls-1" d="M265.79,156.48c0-.86,0-1.71,0-2.57a61.94,61.94,0,0,1,1.19-11,45.37,45.37,0,0,1,4.17-12.76,27.38,27.38,0,0,1,7-9.09,24.45,24.45,0,0,1,12.74-5.6,21,21,0,0,1,18.19,7,29.23,29.23,0,0,1,6.43,11.71,31.52,31.52,0,0,1,1.32,8.86,8.23,8.23,0,0,1-4,7.33,28.55,28.55,0,0,1-6.18,2.9c-6.85,2.46-13.72,4.87-20.58,7.3l-1,.38a1.2,1.2,0,0,0-.81,1.14,10.28,10.28,0,0,0,.58,4.63,4.61,4.61,0,0,0,3.05,2.77c2.56.78,4.95.17,7.29-.77a29.8,29.8,0,0,0,6.24-3.71c2.26-1.63,4.54-3.21,6.84-4.77a6.4,6.4,0,0,1,1.74-.8,4,4,0,0,1,4.87,1.66,15.55,15.55,0,0,1,1.71,3.44,7.31,7.31,0,0,1-.54,5.21,19.4,19.4,0,0,1-5.69,7.65,36.39,36.39,0,0,1-11.4,6.65,31.39,31.39,0,0,1-7.46,1.81c-.71.07-1.41.29-2.11.32a20.79,20.79,0,0,1-14-4.25c-4.37-3.42-6.74-8-8.26-13.17A36.13,36.13,0,0,1,265.79,156.48Zm18-12.5c0,.29,0,.57,0,.86.08.85.44,1.1,1.29.88.28-.07.55-.17.82-.26,3.31-1.11,6.63-2.22,9.93-3.34,1.15-.4,2.27-.85,3.41-1.28a1,1,0,0,0,.74-1.16c-.45-2.8-1.31-5.43-3.56-7.34a6,6,0,0,0-7.68-.05,10.74,10.74,0,0,0-2,2.2C284.86,137.35,284.25,140.64,283.84,144Z"/><path class="cls-1" d="M387.64,114.22A32.49,32.49,0,0,1,396,116a26.33,26.33,0,0,1,8.8,5.19,18.75,18.75,0,0,1,6.3,11.37c.06.42.16.84.23,1.26a4.76,4.76,0,0,1-2.15,5,14,14,0,0,1-4.92,2c-.48.12-1,.17-1.47.27-3,.6-4.85-.54-6.32-2.88-.49-.78-.83-1.66-1.28-2.46a21.79,21.79,0,0,0-1.69-2.73c-2-2.58-4.54-2.92-7.51-2.23-1.82.42-2.48,2-2.75,3.74a6.36,6.36,0,0,0,1,4.31,14.9,14.9,0,0,0,1.79,2.39,89.09,89.09,0,0,0,7.72,7.07c4.32,3.71,8.66,7.43,11.74,12.35a22.7,22.7,0,0,1,3.88,13.12,18.23,18.23,0,0,1-5,12.19,23.15,23.15,0,0,1-11,6.36,28.19,28.19,0,0,1-8.23,1.13,34.56,34.56,0,0,1-9.06-1.35A36.52,36.52,0,0,1,365,186.75a24,24,0,0,1-6.11-6.2,9.41,9.41,0,0,1-1.09-8.78,11.8,11.8,0,0,1,3.45-5.32,4.21,4.21,0,0,1,5.13-.67,6.89,6.89,0,0,1,1.43.93c1.65,1.47,3.23,3,4.91,4.46A33.12,33.12,0,0,0,377,174.6a13.72,13.72,0,0,0,10.46,1.81,4.63,4.63,0,0,0,3.23-5.64,12.39,12.39,0,0,0-4-5.45c-4.41-3.83-9.14-7.29-13.15-11.58a28,28,0,0,1-7.85-16.28,21.05,21.05,0,0,1,2.67-13.63,18.94,18.94,0,0,1,9.24-7.64A33.07,33.07,0,0,1,387.64,114.22Z"/><path class="cls-1" d="M341,125.61c.67-.59,1.16-1,1.59-1.42a34.45,34.45,0,0,1,5.14-4.17,21,21,0,0,1,4.79-2.33,9.32,9.32,0,0,1,4.44-.42,4.68,4.68,0,0,1,3.81,2.79,17.85,17.85,0,0,1,1.4,4.45,21.15,21.15,0,0,1,.08,4.06,4.12,4.12,0,0,1-2.56,3.88c-1.22.58-2.51,1-3.75,1.56a36.82,36.82,0,0,0-9.29,5.23,19.89,19.89,0,0,0-2.5,2.61,7.49,7.49,0,0,0-1.62,5c0,4,0,8,0,12q0,12.21,0,24.41v.64c0,2.55-.92,3.95-3.45,4.35a17.86,17.86,0,0,1-9.49-.7c-3.61-1.45-5.39-4.25-6-8a46.05,46.05,0,0,1-.42-7q0-22.37,0-44.74a13.56,13.56,0,0,1,.44-3.81,10.1,10.1,0,0,1,4.92-6.19,16,16,0,0,1,5-1.71,7.93,7.93,0,0,1,3.8.26,4.32,4.32,0,0,1,3.33,4.21c.07,1.21,0,2.43.05,3.64C340.84,124.56,340.92,125,341,125.61Z"/><path class="cls-2" d="M269.16,118.55a22.12,22.12,0,0,1-8.88-1.92c-1.53-.62-3-1.39-4.52-2.07s-3.08-1.49-4.62-2.24a20.93,20.93,0,0,1-3.37-1.79c-.75-.55-1.68-.86-2.46-1.37a48.5,48.5,0,0,1-5.44-3.51,8.19,8.19,0,0,0-1.13-.7c-.14-.09-.33-.1-.46-.2-1.48-1.07-3-2.14-4.42-3.23-.71-.54-1.33-1.2-2.07-1.68a56.28,56.28,0,0,1-5.12-4.25c-1.19-1-2.22-2.18-3.35-3.25a56.41,56.41,0,0,1-6.73-7.83,34.34,34.34,0,0,1-5.69-12A20.12,20.12,0,0,1,211.17,62a21.11,21.11,0,0,1,1-3,14.44,14.44,0,0,1,10.06-8.26,22.3,22.3,0,0,1,10.08-.3A44,44,0,0,1,238.47,52,32.4,32.4,0,0,1,244,54.25a2,2,0,0,0,.61.28,15.91,15.91,0,0,1,3.49,1.52c1.26.59,1.59.45,2.08-.9.63-1.78,1.17-3.6,1.91-5.34a37.36,37.36,0,0,1,6.35-10.32c1-1.16,2.05-2.34,3.14-3.44a25.28,25.28,0,0,1,8.4-5.61,17.06,17.06,0,0,1,11.9-.62A25.34,25.34,0,0,1,286,31.17c1.12.56,2.41.86,3.29,1.85,1.56.63,2.54,1.95,3.69,3.06a8,8,0,0,1,1.87,2.33,6.67,6.67,0,0,0,.71.92A15.17,15.17,0,0,1,297,41.55a29.38,29.38,0,0,1,2.19,5.75c.11.54.36,1.05.51,1.59s.29,1.17.43,1.76c0,.05,0,.11,0,.17a31.68,31.68,0,0,1,.81,5.41,13.9,13.9,0,0,1,0,4.46,5.06,5.06,0,0,0-.1,1.16,36,36,0,0,1-.57,6c-.18,1.6-.45,3.18-.76,4.76q-.2,1-.42,2c-.39,1.62-.7,3.26-1.2,4.85-1,3.17-2.08,6.32-3.36,9.39A63.81,63.81,0,0,1,291,96.3c-.61,1-1,2.2-1.62,3.28s-1.25,2.23-1.94,3.3q-1.25,2-2.58,3.88c-.8,1.14-1.63,2.25-2.48,3.34a31.64,31.64,0,0,1-7.63,7.15,6.91,6.91,0,0,1-4.38,1.3C269.94,118.53,269.55,118.55,269.16,118.55Zm4.25-34.94c0,.51,0,1.06,0,1.62a2.8,2.8,0,0,1-.19,1.13,21.12,21.12,0,0,1-2.91,4.83A29,29,0,0,1,267.05,94c-1.92,1.56-4.17,1.64-6.49,1.41-.26,0-.5-.23-.76-.31-1.11-.33-1.79-1.29-2.78-1.81a7.34,7.34,0,0,1-1.32-1,14.19,14.19,0,0,1-3.49-5.23A38.54,38.54,0,0,1,250,80.45a79.57,79.57,0,0,1-1.67-10.19c0-.5,0-1-.46-1.38-.77-.62-1.58-1.2-2.4-1.76a20.1,20.1,0,0,0-4.11-1.73,10.36,10.36,0,0,0-7.76-.37,5.28,5.28,0,0,0-3,2.68,10.19,10.19,0,0,0-.27,8.27,24.14,24.14,0,0,0,3,6.28,20.84,20.84,0,0,1,1.49,2.21C237,88.1,240,91,242.8,94.07,243.74,95.14,245,96,246,97a49.86,49.86,0,0,0,5.29,4.56c1.31,1,2.7,1.94,4.07,2.87,1,.69,2.07,1.29,3.08,2a8.32,8.32,0,0,0,4.7,1.47,3.13,3.13,0,0,0,1.9-.51,25.4,25.4,0,0,0,3-2.41,24.87,24.87,0,0,0,3.24-4.42,74.48,74.48,0,0,0,4.48-8.76,71.17,71.17,0,0,0,3.36-9.41q1.14-4,2.07-8.07c.49-2.16.89-4.35,1.2-6.55.25-1.69.3-3.42.45-5.13.05-.61.06-1.22.16-1.82a7.91,7.91,0,0,0,0-3,4.73,4.73,0,0,1-.14-1,19.76,19.76,0,0,0-1-5.9,8.71,8.71,0,0,0-1.6-3.08,3.4,3.4,0,0,0-2.86-1.43,12.64,12.64,0,0,0-4.18,1A16.28,16.28,0,0,0,265.91,53c-.76,1-1.4,2.13-2.14,3.18a18.55,18.55,0,0,0-2.55,6.27,3.16,3.16,0,0,0,1,3.31,28.12,28.12,0,0,0,3.54,3.27,3,3,0,0,1,.71.7,37,37,0,0,1,4.88,6.73C272.5,78.7,273.61,81,273.41,83.61Zm-16.5-10a3.5,3.5,0,0,0-.16.89,22,22,0,0,0,.34,2.3,16.67,16.67,0,0,0,2,5.3,5.75,5.75,0,0,0,3.17,2.58,1.3,1.3,0,0,0,1.8-1.16,3.71,3.71,0,0,0-.05-1.33,12.62,12.62,0,0,0-1.86-4.24,20.93,20.93,0,0,0-4.21-4A3.26,3.26,0,0,0,256.91,73.6Z"/><path class="cls-3" d="M309.64,15.94a6.41,6.41,0,0,1,1.28.42,14,14,0,0,1,3.85,3.16,2.32,2.32,0,0,1,0,3.32A37,37,0,0,1,312.05,26c-3,3-6.07,5.87-9.12,8.79a14.65,14.65,0,0,1-1.7,1.33,1.17,1.17,0,0,1-1.66-.1,6.05,6.05,0,0,1-2.08-4,5.72,5.72,0,0,1,.61-3.54,44.73,44.73,0,0,1,4.71-6.85c.38-.48.77-.94,1.17-1.41a17.1,17.1,0,0,1,4.27-3.68A6.53,6.53,0,0,1,309.64,15.94Z"/><path class="cls-3" d="M266.07,4.28c0-1,0-2,0-3S266.43.09,267.3,0a3.72,3.72,0,0,1,1,0A10.83,10.83,0,0,1,275,3.79,2.41,2.41,0,0,1,275.39,5c.07.61,0,1.22,0,1.83a26.93,26.93,0,0,0,.25,4.48,26.15,26.15,0,0,1,.09,3.32c.05,1,.16,2.1.24,3.14,0,.17.05.33.06.5.1,1.56-.66,2.32-2.19,2a11,11,0,0,1-2.79-1.05,18.7,18.7,0,0,1-2.63-1.74,4.45,4.45,0,0,1-1.73-3.27c-.18-1.77-.32-3.53-.36-5.31,0-1.54-.27-3.08-.41-4.62Z"/><path class="cls-3" d="M323.48,62.23c0,.77,0,1.55,0,2.33-.08,1.25-.61,1.77-1.88,1.88-1.82.16-3.65.29-5.47.4a20.47,20.47,0,0,0-4.87,1A52,52,0,0,0,305.49,70c-1.29.57-1.68.15-1.7-1.17a8,8,0,0,1,2.3-5.87,15.34,15.34,0,0,1,6.77-3.75,49,49,0,0,1,6-1.33,20.78,20.78,0,0,1,3.16-.09,1.14,1.14,0,0,1,1.18,1,10.3,10.3,0,0,1,.28,1.63c0,.61,0,1.22,0,1.84Z"/><path class="cls-3" d="M237.33,24.6a9.16,9.16,0,0,1,1.77.52,25.26,25.26,0,0,1,3,1.79,27.8,27.8,0,0,1,6.76,6.58,9,9,0,0,1,1,1.91c.19.49-.12.87-.65.93a2.44,2.44,0,0,1-.66,0c-1.75-.31-3.5-.6-5.23-1a6.45,6.45,0,0,1-4.24-2.67c-1.06-1.55-2.39-2.91-3.58-4.37a8.68,8.68,0,0,1-.85-1.23,1.23,1.23,0,0,1,.63-1.91A15.15,15.15,0,0,1,237.33,24.6Z"/></g></g></svg>