<svg xmlns="http://www.w3.org/2000/svg" viewBox="0 0 411.45 85.23"><defs><style>.cls-1{fill:#b3b33a;}</style></defs><g id="Capa_2" data-name="Capa 2"><g id="Capa_1-2" data-name="Capa 1"><path class="cls-1" d="M263,63.61c-1.47.85-3,1.69-4.41,2.56a15.17,15.17,0,0,1-6,2.18,4.93,4.93,0,0,1-5.77-4.6c-.36-3.53,1.22-6.23,3.4-8.74s4.14-4.84,6.23-7.24c1.59-1.83,3.22-3.62,4.82-5.43a6.76,6.76,0,0,0,.89-1.18c.14-.28.27-.78.12-1a1.11,1.11,0,0,0-1-.2,9.17,9.17,0,0,0-2.36.94A51.73,51.73,0,0,0,253,45a109.22,109.22,0,0,0-8.53,8c-3.32,3.52-6.38,7.28-9.53,11-.73.84-1.37,1.77-2.06,2.66a1.75,1.75,0,0,1-1.45.83l-9.56,0a2.44,2.44,0,0,1-.6-.17,3.51,3.51,0,0,1,.34-.87q4-5.25,8-10.47,4.35-5.66,8.73-11.28l4.27-5.54a1.69,1.69,0,0,1,1.45-.8c3.1,0,6.2,0,9.29,0a3.11,3.11,0,0,1,.57.14c-2.15,3.21-4.59,6.12-6.61,9.38l1.06-1a43.62,43.62,0,0,1,11.1-8,14.33,14.33,0,0,1,4-1.23,4.83,4.83,0,0,1,5.28,3.25,8,8,0,0,1-1.09,7.19c-1.72,2.51-3.68,4.86-5.61,7.22-2.48,3-5,5.95-7.55,8.93-.36.43-.9.93-.46,1.53s1.12.27,1.61,0A35.27,35.27,0,0,0,260,63.4a66.21,66.21,0,0,0,6.44-4.86,28.42,28.42,0,0,0,3.47-4.08A1.6,1.6,0,0,0,270,53.2a5.08,5.08,0,0,1,1.77-5.79c1.35-1.18,2.8-2.24,4.1-3.47,1.52-1.45,3-3,4.37-4.55,2.91-3.35,5.66-6.84,8.62-10.14s6.23-6.83,9.54-10A86.51,86.51,0,0,1,314.79,6.36a19.64,19.64,0,0,1,6.59-2.67,7,7,0,0,1,2-.12,2.17,2.17,0,0,1,2.14,2.57A7.27,7.27,0,0,1,324.1,10c-1.55,2.19-3.16,4.35-4.91,6.39a76.92,76.92,0,0,1-5.86,6.12q-5.52,5.12-11.26,10c-3.85,3.28-7.89,6.35-11.73,9.65a23.49,23.49,0,0,0-3.19,4c-2.23,3-4.42,6-6.61,9a10.39,10.39,0,0,0-.6,1.13,36,36,0,0,0,5,0,5.22,5.22,0,0,0,4.52-3.1c2.64-4.85,6.74-8.33,11.41-11.17a32.62,32.62,0,0,1,10.54-4.33,33.18,33.18,0,0,1,4.65-.67,11,11,0,0,1,3.05.4c1.79.44,2.42,1.34,2.37,3.21,0,.53-.11,1.06-.21,1.9a32.48,32.48,0,0,0,2.33-2.89A3.25,3.25,0,0,1,326.85,38c2.37.1,4.76,0,7.14,0,.43,0,.85.05,1.6.09-.7,1-1.21,1.75-1.77,2.48q-4.8,6.24-9.61,12.46-3.87,5-7.71,10a11.69,11.69,0,0,0-.64,1,1,1,0,0,0,1.33,1.38c1-.61,2-1.2,3-1.83a52.6,52.6,0,0,0,7.52-5.87,19.76,19.76,0,0,1,1.65-1.38c2.22-1.62,3.66-3.92,5.31-6,3-3.85,6-7.74,8.93-11.63A1.59,1.59,0,0,1,345,38h8.89a5.29,5.29,0,0,1,1,.29l-7.16,9.57.18.19c.55-.54,1.09-1.09,1.65-1.62a39.89,39.89,0,0,1,10.82-7.66,17.66,17.66,0,0,1,4-1.23,4.88,4.88,0,0,1,5.37,3.88,8.35,8.35,0,0,1-1.4,6.77q-2.72,3.67-5.62,7.21c-2.26,2.73-4.62,5.37-6.92,8.06a5.61,5.61,0,0,0-.82,1.23,1,1,0,0,0,0,.84,1.2,1.2,0,0,0,.91.36,6,6,0,0,0,1.38-.5,26.1,26.1,0,0,0,5.6-3.69c2.52-1.87,5-3.76,7.49-5.72a11.66,11.66,0,0,0,1.84-2.11Q377,47.46,382,41c1.46-1.92,3-3.83,4.43-5.75a8.82,8.82,0,0,0,.52-.9c-1.65-.63-3.3-.05-4.84-.4.08-1.11.42-1.47,1.57-1.53s2.25-.06,3.37,0A3,3,0,0,0,389.86,31c3.13-4.21,6.37-8.34,9.54-12.52a2.79,2.79,0,0,1,2.41-1.21c2.56,0,5.12,0,7.68,0a17.58,17.58,0,0,1,2,.27c-.43.7-.7,1.23-1.06,1.71-2.9,3.82-5.82,7.63-8.72,11.45-.32.42-.61.87-1.07,1.52a9.65,9.65,0,0,0,1.64.37c1.3,0,2.61,0,3.91,0a2.85,2.85,0,0,1,.91.38,4,4,0,0,1-.82.91,2.3,2.3,0,0,1-1.06.08H400.6a2.94,2.94,0,0,0-2.51,1.27c-5.2,6.74-10.47,13.44-15.71,20.16-2.12,2.72-4.21,5.47-6.3,8.22a5.39,5.39,0,0,0-.83,1.38,1.12,1.12,0,0,0,.11,1,1.08,1.08,0,0,0,1,.17,16.45,16.45,0,0,0,2.75-1.38,123.52,123.52,0,0,0,11.25-8.74c.1-.09.2-.19.3-.27.38-.28.77-.55,1.18-.07s.05.75-.25,1c-1.25,1.16-2.45,2.38-3.77,3.45-2.23,1.8-4.49,3.58-6.82,5.24a16,16,0,0,1-6.18,2.89,7.48,7.48,0,0,1-2.79,0,5.06,5.06,0,0,1-3.91-4.88c-.07-1,0-2,0-3.11a2.87,2.87,0,0,0-.69.36A43.53,43.53,0,0,1,357,67.26a11.54,11.54,0,0,1-4.25,1.14,4.74,4.74,0,0,1-5.19-4c-.71-2.9.26-5.43,1.94-7.69,1.42-1.9,3-3.66,4.59-5.45,2.37-2.75,4.77-5.47,7.15-8.21a21.66,21.66,0,0,0,1.59-2,2.55,2.55,0,0,0,.14-1c-.34,0-.74-.18-1-.06a34.73,34.73,0,0,0-4,1.87A37,37,0,0,0,351.41,47c-2.22,2.09-4.52,4.12-6.57,6.36-3.21,3.5-6.25,7.16-9.34,10.77-.7.81-1.28,1.73-2,2.53a1.94,1.94,0,0,1-1.21.68c-3.19.06-6.38,0-9.57,0a3,3,0,0,1-.75-.22c.86-1.87,2.41-3.16,3.53-5.05a3.82,3.82,0,0,0-.82.33c-1.47,1.09-2.93,2.22-4.41,3.31A9.72,9.72,0,0,1,313.8,68c-3-.19-5.72-2.3-5.27-6a20.64,20.64,0,0,1,.7-2.73,2.47,2.47,0,0,0,.15-1.09c-.29.25-.58.49-.86.75a45.87,45.87,0,0,1-8.87,7A13.15,13.15,0,0,1,293.32,68,6.52,6.52,0,0,1,287,61.69c0-1.28.16-2.58.25-4a21.69,21.69,0,0,0-3.12.34,10.75,10.75,0,0,1-4.27-.14,1.52,1.52,0,0,0-1.68.69c-1.37,1.89-2.76,3.76-4.14,5.65l-9.75,13.37c-1.62,2.21-3.24,4.41-4.83,6.64a2.07,2.07,0,0,1-1.8,1c-2.92,0-5.84,0-8.76,0A9.85,9.85,0,0,1,247.6,85l7.87-10.76,7.69-10.5Zm55.48-23.93c-.22.09-.64.23-1,.43A55,55,0,0,0,305.83,49,81.84,81.84,0,0,0,295,61.82c-.48.7-.91,1.44-1.35,2.17a1.19,1.19,0,0,0,.21,1.49,1.27,1.27,0,0,0,1.45.43c.46-.17.92-.34,1.37-.55,4.61-2.15,8.43-5.41,12.05-8.9,2-1.93,3.82-4,5.62-6.15A30.8,30.8,0,0,0,319.19,43a7.15,7.15,0,0,0,.6-2.17C319.88,40.08,319.46,39.71,318.46,39.68ZM294.4,36.42l.25.16.6-.51c2.17-1.88,4.34-3.75,6.49-5.64,2.45-2.17,4.9-4.32,7.29-6.55,1.93-1.81,3.81-3.68,5.61-5.62,1.95-2.09,3.83-4.26,5.65-6.47a11.56,11.56,0,0,0,2.59-5.11c.21-1.1-.29-1.7-1.36-1.45a5.46,5.46,0,0,0-2.09.87A37.39,37.39,0,0,0,315,10c-2.25,2.42-4.43,4.93-6.45,7.54-4.54,5.89-9,11.87-13.43,17.81C294.83,35.66,294.63,36.05,294.4,36.42Z"/><path class="cls-1" d="M114.66,34.15c-.87-.06-1.47-.12-2.07-.14s-1.44,0-2.16,0a.81.81,0,0,1-.63-.34.74.74,0,0,1,.19-.71,3.82,3.82,0,0,1,1.45-.54,34,34,0,0,1,3.64,0,2.41,2.41,0,0,0,2.19-1.05c2.92-3.86,5.87-7.71,8.78-11.58,1.86-2.46,1.84-2.47,4.89-2.47,2.11,0,4.22,0,6.33,0a15.27,15.27,0,0,1,1.93.31c-3.59,5.07-7.37,9.61-10.83,14.42.31.62.87.59,1.39.6,1.26,0,2.52,0,3.78,0,.42,0,.85.06,1.29.09,0,1.05-.58,1.29-1.34,1.29-1.57,0-3.15.08-4.71,0a3.52,3.52,0,0,0-3.23,1.55Q121.28,41.08,117,46.6c-3.75,4.81-7.52,9.61-11.26,14.42-.91,1.17-1.75,2.39-2.62,3.59-.29.41-.58.83-.15,1.33a1,1,0,0,0,1.35.14,30.82,30.82,0,0,0,3.81-2.26c3.38-2.59,6.76-5.19,9.95-8a31.41,31.41,0,0,0,3.71-4.59q4.65-6,9.28-12a2.76,2.76,0,0,1,2.23-1.08c2.77,0,5.55.1,8.33.17.34,0,.68.08,1.25.16-.35.56-.57,1-.85,1.35L128.14,58q-2.16,2.84-4.29,5.69a3,3,0,0,0-.62,1.17,1.58,1.58,0,0,0,.31,1.19,1.23,1.23,0,0,0,1.1.06,10.3,10.3,0,0,0,2.24-1.21c2.4-1.8,4.76-3.66,7.12-5.52,1.3-1,2.65-2,3.85-3.15a30.75,30.75,0,0,0,2.9-3.33q6.7-8.67,13.36-17.38c.26-.34.48-.72.82-1.23-1.74-.56-3.38,0-4.92-.42.22-1.09.51-1.41,1.56-1.46a34.06,34.06,0,0,1,3.5,0,2.82,2.82,0,0,0,2.63-1.25c3.09-4.13,6.27-8.2,9.37-12.31a3.46,3.46,0,0,1,3.07-1.56c2.38.07,4.76,0,7.14,0,.65,0,1.3.16,2.25.28-3.64,5.11-7.47,9.71-11.11,14.78.85.11,1.45.24,2.05.26,1.26,0,2.52,0,3.78,0A2.41,2.41,0,0,1,175,33c-.22.3-.37.7-.66.88a2.14,2.14,0,0,1-1,.13c-1.57,0-3.15,0-4.72,0A3,3,0,0,0,166,35.32q-8.85,11.43-17.77,22.82Q146,61,143.82,63.92c-.44.6-1.14,1.31-.53,2s1.48.1,2.06-.26c2-1.28,4.08-2.6,6-4.06,2.43-1.83,4.75-3.82,7.11-5.74.18-.14.33-.37.53-.4a.9.9,0,0,1,.7.17.77.77,0,0,1,.13.7,3.13,3.13,0,0,1-.7.8,72.64,72.64,0,0,1-11.83,9.3,11.43,11.43,0,0,1-6.32,2,5,5,0,0,1-4.91-4.89c0-1.24.08-2.48.13-3.85-.84.7-1.64,1.33-2.4,2a40.57,40.57,0,0,1-8,5.49,12.65,12.65,0,0,1-3.29,1.17c-2.77.56-6.34-1.16-6.44-4.81,0-1.28,0-2.55,0-3.94-.88.73-1.73,1.44-2.58,2.13a39.18,39.18,0,0,1-8.62,5.7,11.43,11.43,0,0,1-2.94.93c-3.07.43-6.06-1.09-6.31-5.44,0-.57,0-1.15.09-2-.57.33-1.06.58-1.52.88a47.92,47.92,0,0,1-12.18,5.94,17.67,17.67,0,0,1-7.56.7,7.62,7.62,0,0,1-6.39-7.35,18.1,18.1,0,0,1,4.83-11.94A33.22,33.22,0,0,1,78.68,44a35.67,35.67,0,0,1,13.56-6c1.53-.33,3.08-.56,4.64-.76a10.92,10.92,0,0,1,4.91.5,2.06,2.06,0,0,1,1.66,2.43,6.59,6.59,0,0,1-.8,2.52c-1.25,2.2-3.27,3.64-5.25,5.11C94.21,50.2,90.55,51.56,86.9,53c-1.47.56-2.93,1.12-4.41,1.66a5.49,5.49,0,0,0-2.49,2c-1.11,1.47-2.22,2.94-3.18,4.51a15.79,15.79,0,0,0-1.46,3.31c-.47,1.44.24,2.33,1.76,2.45a14.28,14.28,0,0,0,5.69-.81,55.07,55.07,0,0,0,13.53-7.44A9.56,9.56,0,0,0,98,56.41Q103.57,49,109.1,41.67c1.54-2,3.13-4,4.68-6.07C114.06,35.23,114.27,34.8,114.66,34.15ZM83.82,52.4a38,38,0,0,0,8.68-3.67,29.07,29.07,0,0,0,7.25-5.52,5.56,5.56,0,0,0,1.68-2.69c.2-1.09,0-1.38-1.15-1.39a5.1,5.1,0,0,0-3.13,1.08c-2.05,1.52-4.09,3.06-6.06,4.67A50.7,50.7,0,0,0,83.82,52.4Z"/><path class="cls-1" d="M82.66,7.59c1.5,1.52,2.9,2.9,4.26,4.32a12.83,12.83,0,0,1,2.89,4.65,13.76,13.76,0,0,1-.19,9.49A21.17,21.17,0,0,1,84,35a23.41,23.41,0,0,1-7.94,4.7,18.7,18.7,0,0,1-8,1.33,8.86,8.86,0,0,1-2.24-.41,3.67,3.67,0,0,1-2.36-4.77,8.81,8.81,0,0,1,4.91-5.59c.34-.17.84-.46,1,.08a1.47,1.47,0,0,1-.23,1.2,5.07,5.07,0,0,1-1.21.83,5.67,5.67,0,0,0-2.63,3.9,4.88,4.88,0,0,0-.08,1.2c.08,1,.48,1.4,1.44,1.45A6.53,6.53,0,0,0,71,37.72a25.37,25.37,0,0,0,5.64-6.1,35.3,35.3,0,0,0,5.92-14.46,11.4,11.4,0,0,0-.72-7c-.63-1.28-.9-1.31-2-.41a55.92,55.92,0,0,0-11,13.33c-4.61,7.38-9.14,14.83-13.83,22.16a85.9,85.9,0,0,1-5.54,7.26c-1,1.29-2.22,2.47-3.37,3.66A39.07,39.07,0,0,1,28.38,66.35a61.07,61.07,0,0,1-11.76,2.1A31.19,31.19,0,0,1,7,67.88a17.75,17.75,0,0,1-3-1.15C.32,65.16-1,61.27.79,57.46a7.91,7.91,0,0,1,6-4.53,4.13,4.13,0,0,1,4.77,3.65,4.25,4.25,0,0,1-4.18,4.36,17.58,17.58,0,0,1-2.76-.5,7,7,0,0,0-1.17-.26A1.1,1.1,0,0,0,2.19,61.3a3.11,3.11,0,0,0,.87,2.59A8.65,8.65,0,0,0,7.79,66.3a21.6,21.6,0,0,0,12.28-1.25,42,42,0,0,0,10-6.29c4.74-3.81,8.3-8.65,11.85-13.51s7-9.58,10.6-14.25A92.81,92.81,0,0,1,63.68,19a97,97,0,0,1,13-9.76c.74-.47,1.45-1,2.24-1.54a3.63,3.63,0,0,0-1.88-1.4A30.14,30.14,0,0,0,68.23,4,69,69,0,0,0,57.76,4,57.71,57.71,0,0,0,45.88,6.15,51.26,51.26,0,0,0,34.2,11.26a42.71,42.71,0,0,0-10.28,8.4c-2.51,2.8-4.62,5.87-5.4,9.64a14.2,14.2,0,0,0-.3,4.52c.32,2.81,3.28,4.89,5.6,5.28a16.37,16.37,0,0,0,9-1.37c5.82-2.38,10.43-6.38,14.52-11.07a56.69,56.69,0,0,0,7.79-11.75c.55-1.07,1-2.22,1.46-3.33a2.92,2.92,0,0,1,.5-.94.91.91,0,0,1,.79-.25c.23.07.41.42.49.69a1.1,1.1,0,0,1-.14.64,64.54,64.54,0,0,1-5.9,12.07,49.48,49.48,0,0,1-8.11,10A27.52,27.52,0,0,1,28.8,41.34a13.54,13.54,0,0,1-8.08-1.29,8.17,8.17,0,0,1-4.56-7.14,14.26,14.26,0,0,1,1.33-6.68,27.22,27.22,0,0,1,4.68-7.35A47.42,47.42,0,0,1,38.53,7.12,58.88,58.88,0,0,1,53.33,2.8a61.66,61.66,0,0,1,13-.59,37.76,37.76,0,0,1,9.23,1.71A26.16,26.16,0,0,1,79.89,5.8a2,2,0,0,0,2.25,0c1.61-1,3.24-1.93,4.86-2.89.19-.12.39-.3.59-.3s.66.05.78.23a.9.9,0,0,1,0,.83,4.71,4.71,0,0,1-1,.82c-1.32.85-2.66,1.68-4,2.53A6.57,6.57,0,0,0,82.66,7.59Z"/><path class="cls-1" d="M211.87,30.15c-.83-.92-1.41-1.65-2.08-2.27a2.15,2.15,0,0,0-1.12-.34c-1.78-.2-3.57-.29-5.34-.56a18.79,18.79,0,0,1-9.53-4.08c-4.4-3.73-5-9.2-2-14.07a17.07,17.07,0,0,1,8.12-6.6,28.64,28.64,0,0,1,13-2.19,27.75,27.75,0,0,1,8.29,1.64c.42.16.89.32.68.94a.85.85,0,0,1-1,.61l-.27,0c-1-.18-2-.43-3-.55a33.45,33.45,0,0,0-4.67-.4,27.62,27.62,0,0,0-15.25,4.6c-2.59,1.77-4.69,4-5.28,7.33a7.58,7.58,0,0,0,3.31,8A17.63,17.63,0,0,0,203.12,25a42.93,42.93,0,0,0,4.66.56c.94.07,1.12-.2.94-1.13-.7-3.63.7-6.59,2.88-9.31,3.79-4.73,8.92-7.41,14.43-9.51a46.36,46.36,0,0,1,12.82-2.87,26.5,26.5,0,0,1,7.23-.1c2.2.42,3.48,1.36,3.85,3.35a3.18,3.18,0,0,1,0,1.19,12.15,12.15,0,0,1-2.88,5.69c-3.63,4.15-8.25,6.81-13.15,9.13a64,64,0,0,1-16.06,4.84,21.71,21.71,0,0,1-2.66.33c-.91.05-1.23.66-1.41,1.38s.3,1.37,1.18,1.29a14.22,14.22,0,0,1,2.67-.18,13.5,13.5,0,0,1,2.84.68c.43.14,1.11.33.92.95a1.85,1.85,0,0,1-1,1.13,9,9,0,0,1-3,.38,14.82,14.82,0,0,1-3.25-.79,2.22,2.22,0,0,0-1.93.17,36,36,0,0,0-6.76,5.07c-1.34,1.26-2.73,2.47-4,3.77a51.9,51.9,0,0,0-8.77,11.7,15.6,15.6,0,0,0-2.13,7.57A4.81,4.81,0,0,0,193.56,65a13.5,13.5,0,0,0,7.38,1,53,53,0,0,0,7.4-1.27,30.43,30.43,0,0,0,15.2-9,10.4,10.4,0,0,0,3.08-7.26,4.81,4.81,0,0,0-3.4-4.78,12.16,12.16,0,0,0-6.5-.16,26.54,26.54,0,0,0-10.94,5,50,50,0,0,0-7,6c-1,1-1.88,2.17-2.8,3.27s-1.39,1.37-1.79.91c-.6-.71.09-1.3.42-1.77,1.3-1.82,2.64-3.63,4.08-5.34a29.23,29.23,0,0,1,10.87-7.95c3.38-1.47,6.87-2.67,10.66-2.37,2.6.21,5,.81,6.95,2.79a5.78,5.78,0,0,1,1.56,5,14.73,14.73,0,0,1-4.12,8.45,33,33,0,0,1-15.1,8.94A38.23,38.23,0,0,1,197.12,68a18,18,0,0,1-11.2-4,12.06,12.06,0,0,1-3.58-5.6,16.06,16.06,0,0,1,.87-12c2-4.44,5.39-7.55,9.42-10.06A42.59,42.59,0,0,1,207.37,31ZM215.46,25l.19.31c.52-.08,1-.17,1.55-.24a53.29,53.29,0,0,0,18.15-5.63,35.43,35.43,0,0,0,9.64-7,10.9,10.9,0,0,0,3.06-5.29,1.94,1.94,0,0,0-1.75-2.51,16.75,16.75,0,0,0-4,.17c-3.46.64-6.42,2.44-9.36,4.27a74.09,74.09,0,0,0-14.56,12.28C217.31,22.52,216.43,23.82,215.46,25Z"/><path class="cls-1" d="M145.77,32.11a5,5,0,0,1-4.64-7.17,7.15,7.15,0,0,1,6-4.4,4.75,4.75,0,0,1,5.2,5.81C151.56,29.67,148.78,32.12,145.77,32.11Z"/></g></g></svg>