<svg xmlns="http://www.w3.org/2000/svg" viewBox="0 0 411.45 100"><defs><style>.cls-1{fill:#05a5c7;}</style></defs><g id="Capa_2" data-name="Capa 2"><g id="Capa_1-2" data-name="Capa 1"><path class="cls-1" d="M283.83,34.21c1.19.06,2,.15,2.83.14,4.52,0,9-.09,13.58-.13a3.35,3.35,0,0,1,3.64,3.15c.34,2.54-1.47,5.34-4,5.69-3.63.5-7.28.81-10.93,1a68.79,68.79,0,0,1-7.18,0,2.55,2.55,0,0,0-2.85,2c-1.66,4.76-3.46,9.46-5.08,14.23-1.69,5-3.34,10-4.77,15.11a28.89,28.89,0,0,0-1,7.06c-.07,2.94,1.83,4.29,4.71,3.77A10.48,10.48,0,0,0,278,83.64a48.41,48.41,0,0,0,8.87-11.51c3.35-5.59,5.56-11.69,8-17.68A10,10,0,0,1,298,50.2a5.34,5.34,0,0,1,7.82,4.71,34.1,34.1,0,0,1-2.32,9.9c-1.45,4.1-3,8.15-4.35,12.3a18.43,18.43,0,0,0-.74,5.54,2.64,2.64,0,0,0,3.93,2.49,14.6,14.6,0,0,0,3.63-2.33c5.07-4.38,8.28-10.15,11.41-15.92,2-3.59,3.43-7.43,5.19-11.13.72-1.52,1.32-3.14,2.87-4.12A5.23,5.23,0,0,1,331,51.5a4.27,4.27,0,0,1,2.64,4.32,54.71,54.71,0,0,1-1.4,7.5c-1.42,5.62-3.08,11.17-4.42,16.81a11,11,0,0,0,.11,5c.58,2.31,2.1,2.85,4.32,2a16.66,16.66,0,0,0,7.39-5.75c3.18-4.31,6.12-8.82,8.94-13.38,5.64-9.14,13.15-15.82,23.74-18.56,5-1.29,9.81-.95,14.23,2a5.58,5.58,0,0,0,1,.32c.63-1.72,1.31-3.42,1.87-5.16,1.86-5.76,3.55-11.57,5.53-17.29,1.39-4,3-8,4.82-11.82a14.75,14.75,0,0,1,3.13-4,4.53,4.53,0,0,1,6.22-.08,6.27,6.27,0,0,1,1.81,7.4c-3.19,8.46-6.5,16.88-9.53,25.4-2.92,8.19-5.64,16.45-8.25,24.75A88.09,88.09,0,0,0,391,81c-.32,1.68-.41,3.57,1.22,4.63a4.68,4.68,0,0,0,5.34-.2,66.4,66.4,0,0,0,5.83-4.91c.89-.79,1.56-1.83,2.45-2.6,1.58-1.36,3.31-.82,3.48,1.25a7.42,7.42,0,0,1-.9,4.38c-3.44,5.48-8,9.75-14.37,11.66a16.3,16.3,0,0,1-6.06.6c-3.44-.29-5.78-2.44-7-5.6a49.33,49.33,0,0,1-1.48-5.9,8.53,8.53,0,0,0-1.13.86,36.44,36.44,0,0,1-12.3,9c-4.19,1.73-8.54,2.87-13.18,1.41-4.25-1.34-6.57-4.34-7.81-8.41-.23-.77-.38-1.57-.66-2.72l-1.58,1.43c-3,2.77-5.82,5.77-9,8.26-3.68,2.84-7.94,2.84-12.14,1-3.5-1.49-5-4.44-5.39-8.06-.15-1.53,0-3.08-.06-4.61,0-.56-.12-1.12-.22-1.94-.5.3-.86.39-1,.62a40.18,40.18,0,0,1-9.74,11,17.69,17.69,0,0,1-10.16,3.7,9.48,9.48,0,0,1-9.55-8.52c-.1-.8-.13-1.61-.23-2.82-1.89,2-3.39,3.66-5,5.2a21.66,21.66,0,0,1-10.39,5.77c-6.65,1.42-10.72-1.12-12.43-7.36a42.76,42.76,0,0,1-.77-6.23,15.11,15.11,0,0,0-1.35,1.72,26.7,26.7,0,0,1-11.59,10.51c-3.4,1.68-7.07,2.51-10.88,1a7.36,7.36,0,0,1-4.56-4.49A15.5,15.5,0,0,1,227,84a13.46,13.46,0,0,0-.32-2.26c-1.5,1.77-2.65,3.17-3.83,4.53-3.67,4.25-7.72,8-13.31,9.54a18.37,18.37,0,0,1-9.11.14,7.34,7.34,0,0,1-5.28-7c0-4.38,1.77-8.11,3.4-11.94,1.47-3.45,3-6.87,4.45-10.33a6.3,6.3,0,0,0,.46-2.23c.08-2.35-1.41-3.62-3.6-2.8a16,16,0,0,0-4.6,2.68A46.25,46.25,0,0,0,186,75.62c-3,4.76-5.64,9.73-8.41,14.62-1.15,2-2.41,4-4.55,5.07a7.67,7.67,0,0,1-2.62.92c-3.16.35-5.35-2-4.52-5.13,1.06-4,2.57-7.93,3.89-11.89a6.37,6.37,0,0,0,.62-3.55c-.74.75-1.14,1.13-1.51,1.54-5.09,5.68-10.52,11-17.23,14.73a35,35,0,0,1-15.37,4.39,17.84,17.84,0,0,1-14.19-5.25C121,90,120.2,90,118.81,90.62a56,56,0,0,1-15.64,5.47c-4.85.79-9.72,1-14.28-1.19a14.37,14.37,0,0,1-4.63-3.44,20,20,0,0,1-4.35-12.29C79.44,69.31,81.76,60,85.52,51A180.53,180.53,0,0,1,93.3,34.36c4.62-8.48,10-16.49,17.6-22.69,2.84-2.31,6-4,9.76-3.95,4.57.1,6.27,1.93,7.41,6.29,1,3.86.26,7.62-.63,11.38A81,81,0,0,1,111,58.55,95.66,95.66,0,0,1,92.28,76.24c-1.22.86-1.7,1.86-1,3.27a4.34,4.34,0,0,1,.24.72c1.6,5.31,5.14,7.41,11.56,6.68,4.75-.54,8.92-2.83,13.3-4.47A2.26,2.26,0,0,0,117.82,80c-.11-4.56,1.28-8.76,3.1-12.83A26.28,26.28,0,0,1,138.63,52.1a17.25,17.25,0,0,1,12.25.85c6,2.77,8.09,9,5.31,14.49-2,4-5.44,6.73-9,9.23a74.08,74.08,0,0,1-14.25,7.46c-.78.32-1.53.7-2.53,1.16a8.35,8.35,0,0,0,5.85,2.9,29.26,29.26,0,0,0,14.66-3.91A59.25,59.25,0,0,0,164.53,74a71,71,0,0,0,14.74-20.45,4.89,4.89,0,0,1,5-2.83c2.2,0,3.9,1,4.49,3.11a8.61,8.61,0,0,1,0,4.25,57.49,57.49,0,0,1-2.21,6c-.34.9-.68,1.8-1,2.7l.62.34c.73-.88,1.51-1.72,2.19-2.64a42.68,42.68,0,0,1,11.78-11.22c3.6-2.25,7.46-2.34,11.37-1.83,2.86.37,5.33,4.18,5,7.46a23.24,23.24,0,0,1-1.29,6c-1.18,3.1-2.73,6-4.09,9.09-1.25,2.8-2.49,5.61-3.64,8.45a6,6,0,0,0-.34,2.51,2.63,2.63,0,0,0,2.76,2.76,8.45,8.45,0,0,0,3.42-.81c3.9-1.84,6.66-5,9.13-8.4a80.52,80.52,0,0,0,9.82-18.74A30,30,0,0,1,236,53.07a4.29,4.29,0,0,1,5.83-1.58c2.59,1.25,4.22,3.76,3.49,6.16a67.18,67.18,0,0,1-3.24,8c-2.44,5.31-4.58,10.65-4.31,16.67.17,3.53,2,4.89,5.43,3.8a16,16,0,0,0,6.45-4.48c4.5-4.65,7.6-10.21,10.37-16,3-6.29,4.42-13.08,6.76-19.57.64-1.77.39-2.14-1.47-2.78-.8-.28-1.62-.53-2.43-.8A3.79,3.79,0,0,1,260,39a4.16,4.16,0,0,1,2.25-4,10.63,10.63,0,0,1,3.6-1.06c1.58-.22,3.53.34,4.71-.41s1.23-2.67,1.88-4c1.38-2.93,2.55-6,4.87-8.36,2.15-2.22,3.93-2.59,6.36-1.2,2.69,1.54,3.92,4.25,3,6.9-.46,1.36-1.14,2.66-1.67,4C284.6,31.82,284.29,32.85,283.83,34.21ZM90.18,69.93l.68.36a20,20,0,0,0,1.89-1.55c3.62-3.71,7.31-7.37,10.78-11.22a68.42,68.42,0,0,0,13.72-22.28,54,54,0,0,0,2-8.69,3.64,3.64,0,0,0-1.76-3.72c-1.33-.92-2.61-.5-3.76.42A31.82,31.82,0,0,0,111,25.57a50.93,50.93,0,0,0-8.61,12.62c-2,3.93-3.77,8-5.66,12a84.35,84.35,0,0,0-5.88,16C90.59,67.48,90.41,68.71,90.18,69.93Zm266.53,7.36c-.07,5.22,2.25,8,6,7.72A16.4,16.4,0,0,0,373,80.88c4.91-4.54,8.17-10.19,10.88-16.21a2,2,0,0,0,.12-1.43c-1.74-3.94-8.2-6.43-12.37-4.78a24.73,24.73,0,0,0-11.55,9.67A19,19,0,0,0,356.71,77.29Zm-227.85-.36.45.52c3.65-2,7.38-3.77,10.9-5.94,2.81-1.73,5.51-3.69,7.16-6.75,1.36-2.5.34-4.82-2.48-5.26A6.84,6.84,0,0,0,140,60.58C134,64.46,130.83,70.3,128.86,76.93Z"/><path class="cls-1" d="M41.51,59c3.25-.9,6.57-1.61,9.73-2.75,5.65-2,11-4.78,15.17-9.22a23.78,23.78,0,0,0,6.82-16.64c0-7-3.15-12.42-9.18-16.09A37.9,37.9,0,0,0,45.8,9.19a43.07,43.07,0,0,0-24,5.87A20.94,20.94,0,0,0,13,23.73a8.16,8.16,0,0,0-.38,7.39c.56,1.24.92,2.58,1.52,3.8,1,2.08.92,3.9-.79,5.59A6.1,6.1,0,0,1,6.78,42.1a10.21,10.21,0,0,1-5.42-5.52A15.57,15.57,0,0,1,1,24.85c2.4-7.28,7.52-12.2,13.89-16.08a53.66,53.66,0,0,1,10.6-5,65.75,65.75,0,0,1,18-3.63A53.61,53.61,0,0,1,63.86,2.68c8.15,2.84,15,7.41,18.93,15.41A22.77,22.77,0,0,1,85,25.39a29.93,29.93,0,0,1-4.43,20.1A43.37,43.37,0,0,1,68.13,57.91a63.4,63.4,0,0,1-23.94,10,35.67,35.67,0,0,1-4.79.78,2.41,2.41,0,0,0-2.47,2.07C35,77.16,33.16,83.62,31.16,90.05a41.23,41.23,0,0,1-2.85,7.36c-1.62,3-4.34,3.13-7.07,1.73a3.67,3.67,0,0,1-1.69-3.78,86.68,86.68,0,0,1,1.74-10c1.18-4.62,2.75-9.13,4.09-13.71.56-1.94.21-2.23-2-2.42-4.16-.37-8.33-.79-12.15-2.72a4.85,4.85,0,0,1-.69-.32c-2.49-1.93-2.92-3.66-1.1-5.77a5.87,5.87,0,0,1,5.88-2.21c3.86.68,7.75,1.15,11.63,1.67,1.64.22,1.84,0,2.44-1.86,1.78-5.6,3.43-11.26,5.39-16.81,1.24-3.52,2.94-6.89,4.45-10.32a8.24,8.24,0,0,1,.83-1.28c1.77-2.44,4-3.41,6.12-2.65a5.46,5.46,0,0,1,3.17,6.35c-1,4.13-2.38,8.16-3.73,12.2-1.45,4.35-3,8.66-4.58,13Z"/><path class="cls-1" d="M253.19,37.87a6.23,6.23,0,0,1-6.06,6.54,5.06,5.06,0,0,1-5.23-5c0-4,2.54-6.51,6.24-6.56C251.19,32.78,253.58,35.1,253.19,37.87Z"/></g></g></svg>