<svg xmlns="http://www.w3.org/2000/svg" viewBox="0 0 411.47 168.82"><defs><style>.cls-1{fill:#00a8e2;}.cls-2{fill:#ff9515;}</style></defs><g id="Capa_2" data-name="Capa 2"><g id="Capa_1-2" data-name="Capa 1"><path class="cls-1" d="M211.77,47.51a37.07,37.07,0,0,0-19.24-1.75c-10.55,1.92-18.13,7.68-21.3,18.32-2.51,8.45-.38,15.11,6.86,20.06,4,2.74,8.46,4.82,12.7,7.22a63.89,63.89,0,0,1,7.13,4.17c3.84,2.86,4.76,6.2,3.4,10.75a16.31,16.31,0,0,1-17.26,11.41c-7.21-.64-11.22-4.17-12.59-11.37-.55-2.86-.62-7.37-1.21-10.21-.47-2.29-1.41-3.3-2.41-3.23s-1.73,1.09-2,3.24c-.66,4.7-1.69,11.48-2.37,16-.62,4.13.47,6.49,3.54,8.66,4.76,3.38,10.17,4,15.51,4,16.92,1.48,31.65-12.83,31.88-30,.08-6.12-2.26-11.14-7.54-14.41-2.89-1.79-6.08-3.06-9.09-4.66a133.51,133.51,0,0,1-11.89-6.61c-5.3-3.57-4.16-8.06-1.5-11.83,5.17-7.34,17.89-6.84,22.53.93,1.23,2.06,1.76,5.9,2.84,8.07a2.92,2.92,0,0,0,.45.63,2.32,2.32,0,0,0,3.58-.2,1.83,1.83,0,0,0,.26-.57c.82-3.3,1.34-8.05,2-11.39C216.85,50.35,216.16,49.08,211.77,47.51Z"/><path class="cls-1" d="M273.8,45.52c-29.12-3.64-56.89,23.18-52.74,54.21a26.38,26.38,0,0,0,7.27,15.12c7.3,7.56,16.55,9.83,29.09,10,7.7.37,16.83-2.68,24.91-8.65,13.24-9.79,19.39-23.26,19.44-39.53C301.83,59.43,290.87,47.66,273.8,45.52Zm11.3,45.61c-1.27,6.41-3.39,12.51-7.37,17.83-6.06,8.12-17,11.83-26.49,8.58-8.06-2.76-11.79-9.33-13.59-17.11-.83-3.61-1-7.36-1.52-11.05.41-10,2.47-19.38,8.64-27.47,7.29-9.55,16.44-11.39,26.38-9.28,7,1.49,11,6.53,13.3,13C287.37,74.06,286.79,82.61,285.1,91.13Z"/><path class="cls-1" d="M410.24,49.44a48.05,48.05,0,0,1-5,7.06c-.67.69-2.37.72-3.61.74-5.2.08-9.82,0-15.51,0-.57,3.11-1.17,6.07-1.65,9q-4.05,25.61-8,51.23a15.79,15.79,0,0,0-.13,2.75c.24,5.13-2.15,4.3-5.49,2.82-5.34-2.33-7.93-6.8-8-12.39a93,93,0,0,1,1.29-14c1.95-13,4.07-25.95,6.24-39.57H359.58c1.32-1.92,18.22-19.42,25.95-26.39a2.32,2.32,0,0,1,.3-.22,2.56,2.56,0,0,1,3.88,2,3.12,3.12,0,0,1,0,.43c-.47,4.17-1.47,9.72-2.22,14.76,6.85-.24,12.42-.33,19.19-.7,2.24-.12,3.3-1.67,4.38-1C412,46.54,411.27,47.42,410.24,49.44Z"/><path class="cls-1" d="M334.14,47.88c1.94-7.2,3-14.26,5.35-20.57,2.78-7.33,7.55-13.38,15.8-15.55a16.81,16.81,0,0,1,7.22.1c2.29.6,5.17,2,4.81,5.6-.09.95.16,2.2,1,2,2.09-.46,3.2-9.36,3.63-13.93.4-4.16.31-4.86-3.89-5.37-5.13-.63-10,.7-14.65,2.76-17.73,7.84-28.43,21.59-33.5,40-.46,1.66-.94,3.31-1.39,4.93-3.16,0-5.76,0-8.36,0-2.42-.05-3.6,1.16-3.84,3.46-.08.81-.18,1.61-.25,2.42-.32,4-.18,4.2,3.75,4.29,2.35,0,4.7,0,7.38.08C315.58,68.44,314,78,312.51,87.64c-1.86,11.69-3.74,23.38-5.54,35.08-.52,3.35-.31,3.55,3.06,3.64,2.07,0,4.13.06,6.2,0,5.41-.08,5.67.16,6.34-4q4-25.49,8.08-51c.7-4.42,1.53-9.12,2.26-13.34l11.72,0c6.31,0,10.78-5.37,12.32-8.08.39-.7.75-2-.87-2Z"/><path class="cls-1" d="M89.13,5C30.23.78-27.6,79.48,17.13,126.83,9.58,132,3.72,138.44.31,147.21c-.91,2.32.22,7.64,2.81,4.54,8.86-10.59,20.45-21.59,33.74-13.28,14.81,8.11,28.69,17.88,43.29,26.36,11.46,6.16,31.53,6.1,37.68-6.75a1.53,1.53,0,0,0-2.17-2c-17.86,9.55-31.49-11-45-18.52,17.19-5.5,33.64-12.71,46.24-27C148.53,74.69,146.82,9.12,89.13,5ZM88.06,121.53C20.44,163.17-4.65,55.76,50,24.91,125.13-17.57,147.31,85,88.06,121.53Z"/><path class="cls-2" d="M151.81,72.74a12.93,12.93,0,0,0-2.28.63c-4.28,1.91-7.68,8.92-6.58,13.47s4.73,6.18,8.86,3.86c3.72-2.09,6.75-8.31,6-12.41C157.21,74.55,155.38,72.71,151.81,72.74Z"/></g></g></svg>