<svg xmlns="http://www.w3.org/2000/svg" viewBox="0 0 411.47 114.42"><defs><style>.cls-1{fill:#03c8fe;}.cls-2{fill:#0000d7;}.cls-3{fill:#0083e4;}</style></defs><g id="Capa_2" data-name="Capa 2"><g id="Capa_1-2" data-name="Capa 1"><path d="M106.63,84.8V44.86H95.38V31.63h38.13V44.86H121.44V84.8Z"/><path d="M268.19,84.8V48.43l12.75,0v5.7A12.1,12.1,0,0,1,287,48.32c2-.91,8.4-1,9.84-.66l-1.05,12.28a18.36,18.36,0,0,0-5.91-.78,10.21,10.21,0,0,0-6.36,3.27c-1.64,1.61-2.46,4-2.46,7V84.8Z"/><path d="M193.51,84.8V58H188.3V48.43h5.22c0-8-1-13.19,3.44-17.92,3.39-3.63,13.39-4,16.55-1.66v9.56c-7.34-.54-7,3.93-7,10h6.94V58l-7,0V84.8Z"/><path d="M233.11,87C220.19,87,216,76.86,216.44,65.26c.51-12.81,8.75-18.18,17.32-18.18,4.75,0,9.46,1,11.88,5.78l0-4.44h13V84.8H245.91l0-4.46C243.69,84.55,238.58,87,233.11,87Zm5.32-12.1c10.47.8,10.21-17.66-.14-16.79C227.63,57.44,227.72,75.77,238.43,74.94Z"/><path d="M301.18,84.8V48.42h13.05l0,5.22c1.91-4.36,7.07-7,12.27-7,6.76,0,10.66,3.73,11.6,7,1.95-5,6.25-7.28,12.56-7,4.73.23,6.89,1.1,9.48,3.63s2.69,7,2.69,11.73V84.8h-13V67c0-3.54-.68-10-5.11-10-5.28-.21-6.24,6.58-6.17,11.5V84.8h-13V66.7c.13-3.68-1.21-9.79-5.65-9.59-4.77-.16-5.66,7.26-5.61,11.93V84.8Z"/><path d="M169.22,84.8V48.43H183.1V84.8Z"/><ellipse cx="176.28" cy="37.05" rx="7.81" ry="7.8"/><path d="M136.21,84.8V48.43l12.75,0v5.7A12.1,12.1,0,0,1,155,48.32c2-.91,8.41-1,9.84-.66l-1.05,12.28a18.36,18.36,0,0,0-5.91-.78,10.21,10.21,0,0,0-6.36,3.27c-1.64,1.61-2.45,4-2.45,7V84.8Z"/><path d="M385.93,87C373,87,368.8,76.86,369.26,65.26c.5-12.81,8.75-18.18,17.32-18.18,4.74,0,9.45,1,11.88,5.78l0-4.44h13.05V84.8H398.73l0-4.46C396.5,84.55,391.4,87,385.93,87Zm5.32-12.1c10.46.8,10.21-17.66-.14-16.79C380.44,57.44,380.53,75.77,391.25,74.94Z"/><path class="cls-1" d="M60.69,35.14H16.57C27,16.61,38.63,0,38.63,0S50.22,16.61,60.69,35.14Z"/><path class="cls-2" d="M77.16,76.6a38.75,38.75,0,0,1-29.93,37.82V49.8H68.44C72.68,56.55,77.16,65.91,77.16,76.6Z"/><path class="cls-3" d="M0,76.6a38.75,38.75,0,0,0,29.93,37.82V49.8H8.72C4.48,56.55,0,65.91,0,76.6Z"/></g></g></svg>