<svg xmlns="http://www.w3.org/2000/svg" viewBox="0 0 427.88 426.19"><defs><style>.cls-1{fill:#03163d;}.cls-2{fill:#fff;}.cls-3{fill:#e83338;}.cls-4{fill:#287aba;}</style></defs><g id="Capa_2" data-name="Capa 2"><g id="Capa_1-2" data-name="Capa 1"><path class="cls-1" d="M287.34,344.28v-4C287.27,341.61,287.34,343,287.34,344.28ZM427.83,175.94q0-34.24-.13-68.48c0-3.45-.07-6.92-.23-10.38a149.24,149.24,0,0,0-1.77-18c-5.72-34.64-24.92-58.9-57.65-72C354.11,1.59,339.31.09,324.45.06Q215-.11,105.49,0A146.05,146.05,0,0,0,73.77,3.11c-30.28,6.71-52.15,24-65,52.45C2.81,68.81.68,82.83.19,97.08c-.07,2.07-.1,4.15-.11,6.23Q-.07,139.63,0,175.94q0,18.93,0,37.85c0,33.49-.08,67,.05,100.48,0,7.6.32,15.23.89,22.81H140.73v3.43c.07-3.37.62-3.38,4.82-3.43H281c1,0,2,.06,3,0a4.94,4.94,0,0,1,.77,0,2.43,2.43,0,0,1,2.55,2.53v-2.53H427.08c.36-4.2.53-8.43.55-12.67Q428,250.18,427.83,175.94ZM140.73,423.71c0-.32,0-.69,0-1.1Z"/><path class="cls-2" d="M214.13,296.13c-4.13-4-8.08-7.53-11.78-11.34q-26.46-27.26-52.79-54.62C107.91,186.59,117.33,113.7,168.51,83c38.61-23.18,88.3-13.37,116.42,23,27.48,35.51,26.13,88.05-4.11,121.19-21.21,23.25-43.6,45.43-65.47,68.08A9.39,9.39,0,0,1,214.13,296.13Zm.2-37.46c.67-.64,1.52-1.39,2.32-2.21,14.47-15,29.2-29.71,43.32-45,19.13-20.73,24-44.92,14.55-71.38-11.4-32-45.24-49.71-77.09-41-31.33,8.58-52.69,40.49-47.94,74.77,2.82,20.35,14.19,35.35,29.72,48.85v-6.1q0-46.49,0-93c0-5.05,0-5.09,4.82-5.1,12.16,0,24.32-.07,36.48,0a38.55,38.55,0,0,1,8.92.91c16.81,4.2,27.28,15.18,31.16,31.72,4,17.14-.89,32.1-14.48,43.55-10.35,8.72-22.45,11.26-35.63,8-2.71-.66-5.31-1.76-7.95-2.65a3.93,3.93,0,0,0-.42,1.1c0,14.5-.1,29,0,43.49a6.23,6.23,0,0,0,1.64,3.91C207,252,210.49,255.07,214.33,258.67Zm-.8-116.57v0c-2.83,0-5.67.06-8.49,0-2-.07-3.08.52-3,2.79.11,6-.19,12,.14,18A18.8,18.8,0,0,0,216,179.9a18.51,18.51,0,0,0,22.81-15.33c1.76-11.24-5.89-21.56-16.76-22.44C219.2,141.9,216.36,142.1,213.53,142.1Z"/><path class="cls-3" d="M140.72,342.17q0,39,0,78c0,1,0,1.78,0,2.46v1.1c-.07,2.4-.88,2.36-6,2.35-16.66,0-33.35.47-50-.31-20.86-1-39-9.29-54.34-23.42C12.25,385.61,3.27,364.45,1.22,340.16c-.09-1-.17-2.05-.25-3.08H140.73v3.43C140.72,341,140.72,341.54,140.72,342.17Z"/><path class="cls-2" d="M140.72,342.17c0-.63,0-1.18,0-1.66v82.1c0-.68,0-1.49,0-2.46Q140.75,381.17,140.72,342.17Z"/><path class="cls-4" d="M427.08,337.08c-1.22,14.17-4.58,28-11.52,40.86-13.93,25.79-35.62,41.21-64.38,46.6a74.1,74.1,0,0,1-12.89,1.08c-15.33.12-30.66.06-46,0-4.92,0-5,0-5-4.9V340.28c0-.24,0-.46,0-.67v-2.53Z"/><rect class="cls-2" x="139.86" y="337.08" width="147.49" height="88.61"/></g></g></svg>