<svg xmlns="http://www.w3.org/2000/svg" viewBox="0 0 111.98 100.01"><defs><style>.cls-1{fill:#f0fdfa;}</style></defs><g id="Capa_2" data-name="Capa 2"><g id="Capa_1-2" data-name="Capa 1"><g id="Capa_2-2" data-name="Capa 2"><g id="Capa_1-2-2" data-name="Capa 1-2"><circle class="cls-1" cx="38.99" cy="92.17" r="7.84"/><circle class="cls-1" cx="88.8" cy="92.17" r="7.84"/><path class="cls-1" d="M108.23,19H23.87L20.15,6.18V6.09L20,5.37A7.27,7.27,0,0,0,13,0H4a3.76,3.76,0,0,0-.38,7.51h8.48l4.52,15.3L29.74,68.21a12,12,0,0,0,11.55,8.67H86.53a12,12,0,0,0,11.55-8.69l13.73-44.32A3.73,3.73,0,0,0,108.23,19ZM88.86,35.9l-24,29.66A3.89,3.89,0,0,1,62.15,67H62a3.91,3.91,0,0,1-2.8-1.14l-17-17.08a3.86,3.86,0,1,1,5.47-5.46l14,14L82.85,31A3.86,3.86,0,0,1,89,35.64l-.18.22Z"/></g></g></g></g></svg>