<svg xmlns="http://www.w3.org/2000/svg" viewBox="0 0 150 150"><defs><style>.cls-1{fill:#f1b4b4;}</style></defs><g id="Capa_2" data-name="Capa 2"><g id="Capa_1-2" data-name="Capa 1"><path class="cls-1" d="M75,0a75,75,0,1,0,75,75A75,75,0,0,0,75,0Zm42.2,75.69C109,84,97.76,84.24,97.4,83.51c-.58-1.18,11.45-3.52,17.66-16.07,6.57-13.27,1.19-22-5.77-26.71a19.06,19.06,0,0,0-9.78-3.18c-.57,0-1.05-.08-1.51-.08a14.56,14.56,0,0,0-12.11,6.72,25.14,25.14,0,0,0-3.48,7.45,6.13,6.13,0,0,1-6.12,4.63A6.21,6.21,0,0,1,70,51.15c-1.63-8-9.42-14.46-17.72-14.68A18.51,18.51,0,0,0,37,44.82a16.83,16.83,0,0,0-1.76,16C39.5,69.51,47,75.35,54.82,81.52A88.5,88.5,0,0,1,71.94,98.45C83.06,113.34,81,135,79.19,135c-2,0,1.08-7.71-6.63-22.81C67.35,102,56.14,93,45.33,85.54c-11.39-8.38-21.84-18-21.62-31.85-.38-13.1,10.18-25.54,24-28.2A26.38,26.38,0,0,1,76.1,38.92a23,23,0,0,1,19-13.4c.62,0,1.29-.06,2-.06,12.84,0,28.18,10,29.19,24.6C126.84,59.17,124.33,68.45,117.2,75.69Z"/></g></g></svg>